# Blender v2.77 (sub 0) OBJ File: ''
# www.blender.org
mtllib 3.mtl
o Text_Mesh.001
v 0.059701 -0.202425 -0.000000
v 0.048888 -0.202283 -0.000000
v 0.038680 -0.201855 -0.000000
v 0.029078 -0.201143 -0.000000
v 0.020082 -0.200145 -0.000000
v 0.011691 -0.198862 -0.000000
v 0.003906 -0.197295 -0.000000
v -0.003273 -0.195442 -0.000000
v -0.009847 -0.193304 -0.000000
v -0.015814 -0.190882 -0.000000
v -0.021177 -0.188174 -0.000000
v -0.025933 -0.185181 -0.000000
v -0.030084 -0.181903 -0.000000
v -0.033772 -0.178240 -0.000000
v -0.037139 -0.174091 -0.000000
v -0.040185 -0.169455 -0.000000
v -0.042910 -0.164335 -0.000000
v -0.045315 -0.158728 -0.000000
v -0.047400 -0.152635 -0.000000
v -0.049163 -0.146057 -0.000000
v -0.050606 -0.138993 -0.000000
v -0.051729 -0.131442 -0.000000
v -0.052530 -0.123406 -0.000000
v -0.053011 -0.114885 -0.000000
v -0.053172 -0.105877 -0.000000
v -0.053172 -0.065765 -0.000000
v 0.048041 -0.044776 -0.000000
v 0.048041 -0.113806 -0.000000
v 0.313899 -0.113806 -0.000000
v 0.318510 -0.113744 -0.000000
v 0.322858 -0.113560 -0.000000
v 0.326944 -0.113252 -0.000000
v 0.330768 -0.112821 -0.000000
v 0.334329 -0.112267 -0.000000
v 0.337628 -0.111590 -0.000000
v 0.340665 -0.110790 -0.000000
v 0.343439 -0.109867 -0.000000
v 0.345951 -0.108821 -0.000000
v 0.348200 -0.107652 -0.000000
v 0.350187 -0.106359 -0.000000
v 0.351912 -0.104944 -0.000000
v 0.353439 -0.103344 -0.000000
v 0.354834 -0.101498 -0.000000
v 0.356095 -0.099405 -0.000000
v 0.357224 -0.097067 -0.000000
v 0.358220 -0.094482 -0.000000
v 0.359083 -0.091651 -0.000000
v 0.359814 -0.088574 -0.000000
v 0.360411 -0.085251 -0.000000
v 0.360876 -0.081681 -0.000000
v 0.361208 -0.077866 -0.000000
v 0.361407 -0.073804 -0.000000
v 0.361474 -0.069496 -0.000000
v 0.361474 -0.033582 -0.000000
v 0.361406 -0.029198 -0.000000
v 0.361202 -0.025063 -0.000000
v 0.360862 -0.021178 -0.000000
v 0.360386 -0.017543 -0.000000
v 0.359773 -0.014156 -0.000000
v 0.359025 -0.011019 -0.000000
v 0.358141 -0.008132 -0.000000
v 0.357121 -0.005493 -0.000000
v 0.355964 -0.003105 -0.000000
v 0.354672 -0.000965 -0.000000
v 0.353243 0.000925 0.000000
v 0.351679 0.002565 0.000000
v 0.349920 0.004018 0.000000
v 0.347909 0.005344 0.000000
v 0.345645 0.006544 0.000000
v 0.343128 0.007618 0.000000
v 0.340359 0.008566 0.000000
v 0.337337 0.009387 0.000000
v 0.334062 0.010081 0.000000
v 0.330535 0.010650 0.000000
v 0.326755 0.011092 0.000000
v 0.322722 0.011408 0.000000
v 0.318437 0.011597 0.000000
v 0.313899 0.011660 0.000000
v 0.147388 0.011660 0.000000
v 0.147388 0.091884 0.000000
v 0.295709 0.091884 0.000000
v 0.300244 0.091946 0.000000
v 0.304519 0.092130 0.000000
v 0.308535 0.092438 0.000000
v 0.312293 0.092869 0.000000
v 0.315791 0.093423 0.000000
v 0.319030 0.094100 0.000000
v 0.322010 0.094900 0.000000
v 0.324731 0.095823 0.000000
v 0.327192 0.096869 0.000000
v 0.329395 0.098038 0.000000
v 0.331338 0.099331 0.000000
v 0.333022 0.100746 0.000000
v 0.334512 0.102350 0.000000
v 0.335873 0.104206 0.000000
v 0.337104 0.106314 0.000000
v 0.338205 0.108675 0.000000
v 0.339177 0.111289 0.000000
v 0.340019 0.114156 0.000000
v 0.340731 0.117275 0.000000
v 0.341314 0.120647 0.000000
v 0.341768 0.124271 0.000000
v 0.342092 0.128148 0.000000
v 0.342286 0.132278 0.000000
v 0.342351 0.136660 0.000000
v 0.342351 0.161381 0.000000
v 0.342286 0.165837 0.000000
v 0.342092 0.170035 0.000000
v 0.341768 0.173974 0.000000
v 0.341314 0.177653 0.000000
v 0.340731 0.181074 0.000000
v 0.340019 0.184235 0.000000
v 0.339176 0.187137 0.000000
v 0.338205 0.189780 0.000000
v 0.337104 0.192164 0.000000
v 0.335873 0.194289 0.000000
v 0.334512 0.196155 0.000000
v 0.333022 0.197761 0.000000
v 0.331338 0.199177 0.000000
v 0.329395 0.200469 0.000000
v 0.327192 0.201638 0.000000
v 0.324731 0.202684 0.000000
v 0.322010 0.203608 0.000000
v 0.319030 0.204408 0.000000
v 0.315791 0.205085 0.000000
v 0.312293 0.205638 0.000000
v 0.308535 0.206069 0.000000
v 0.304519 0.206377 0.000000
v 0.300244 0.206562 0.000000
v 0.295709 0.206623 0.000000
v 0.052239 0.206623 0.000000
v 0.052239 0.145056 0.000000
v -0.045243 0.163246 0.000000
v -0.045243 0.194030 0.000000
v -0.045084 0.203038 0.000000
v -0.044608 0.211559 0.000000
v -0.043814 0.219595 0.000000
v -0.042703 0.227146 0.000000
v -0.041275 0.234210 0.000000
v -0.039529 0.240788 0.000000
v -0.037466 0.246881 0.000000
v -0.035085 0.252488 0.000000
v -0.032387 0.257608 0.000000
v -0.029371 0.262243 0.000000
v -0.026038 0.266393 0.000000
v -0.022388 0.270056 0.000000
v -0.018275 0.273334 0.000000
v -0.013552 0.276327 0.000000
v -0.008221 0.279034 0.000000
v -0.002280 0.281457 0.000000
v 0.004269 0.283595 0.000000
v 0.011427 0.285448 0.000000
v 0.019194 0.287015 0.000000
v 0.027570 0.288298 0.000000
v 0.036556 0.289296 0.000000
v 0.046149 0.290008 0.000000
v 0.056352 0.290436 0.000000
v 0.067164 0.290578 0.000000
v 0.333955 0.290578 0.000000
v 0.344767 0.290436 0.000000
v 0.354970 0.290008 0.000000
v 0.364564 0.289296 0.000000
v 0.373549 0.288298 0.000000
v 0.381925 0.287015 0.000000
v 0.389692 0.285448 0.000000
v 0.396850 0.283595 0.000000
v 0.403400 0.281457 0.000000
v 0.409340 0.279034 0.000000
v 0.414671 0.276327 0.000000
v 0.419394 0.273334 0.000000
v 0.423507 0.270056 0.000000
v 0.427158 0.266393 0.000000
v 0.430491 0.262243 0.000000
v 0.433506 0.257608 0.000000
v 0.436204 0.252488 0.000000
v 0.438585 0.246881 0.000000
v 0.440648 0.240788 0.000000
v 0.442394 0.234210 0.000000
v 0.443823 0.227146 0.000000
v 0.444933 0.219595 0.000000
v 0.445727 0.211559 0.000000
v 0.446203 0.203038 0.000000
v 0.446362 0.194030 0.000000
v 0.446362 0.149254 0.000000
v 0.446216 0.142180 0.000000
v 0.445779 0.135417 0.000000
v 0.445050 0.128965 0.000000
v 0.444030 0.122823 0.000000
v 0.442718 0.116993 0.000000
v 0.441115 0.111474 0.000000
v 0.439220 0.106266 0.000000
v 0.437034 0.101368 0.000000
v 0.434556 0.096782 0.000000
v 0.431786 0.092506 0.000000
v 0.428726 0.088542 0.000000
v 0.425373 0.084888 0.000000
v 0.421652 0.081477 0.000000
v 0.417483 0.078242 0.000000
v 0.412867 0.075181 0.000000
v 0.407805 0.072295 0.000000
v 0.402295 0.069584 0.000000
v 0.396339 0.067048 0.000000
v 0.389935 0.064686 0.000000
v 0.383085 0.062500 0.000000
v 0.375787 0.060489 0.000000
v 0.368043 0.058652 0.000000
v 0.359851 0.056990 0.000000
v 0.351213 0.055504 0.000000
v 0.360865 0.054441 0.000000
v 0.370077 0.053120 0.000000
v 0.378848 0.051539 0.000000
v 0.387179 0.049699 0.000000
v 0.395069 0.047601 0.000000
v 0.402519 0.045243 0.000000
v 0.409528 0.042625 0.000000
v 0.416097 0.039749 0.000000
v 0.422225 0.036614 0.000000
v 0.427913 0.033219 0.000000
v 0.433160 0.029566 0.000000
v 0.437966 0.025653 0.000000
v 0.442362 0.021458 0.000000
v 0.446375 0.016959 0.000000
v 0.450006 0.012156 0.000000
v 0.453255 0.007048 0.000000
v 0.456121 0.001636 0.000000
v 0.458605 -0.004081 -0.000000
v 0.460708 -0.010102 -0.000000
v 0.462427 -0.016428 -0.000000
v 0.463765 -0.023059 -0.000000
v 0.464721 -0.029993 -0.000000
v 0.465294 -0.037232 -0.000000
v 0.465485 -0.044776 -0.000000
v 0.465485 -0.096549 -0.000000
v 0.465304 -0.106390 -0.000000
v 0.464759 -0.115704 -0.000000
v 0.463853 -0.124490 -0.000000
v 0.462583 -0.132748 -0.000000
v 0.460950 -0.140478 -0.000000
v 0.458955 -0.147680 -0.000000
v 0.456597 -0.154354 -0.000000
v 0.453876 -0.160500 -0.000000
v 0.450793 -0.166118 -0.000000
v 0.447347 -0.171208 -0.000000
v 0.443538 -0.175770 -0.000000
v 0.439366 -0.179804 -0.000000
v 0.434727 -0.183417 -0.000000
v 0.429519 -0.186716 -0.000000
v 0.423741 -0.189701 -0.000000
v 0.417392 -0.192371 -0.000000
v 0.410474 -0.194728 -0.000000
v 0.402985 -0.196770 -0.000000
v 0.394926 -0.198498 -0.000000
v 0.386298 -0.199912 -0.000000
v 0.377099 -0.201012 -0.000000
v 0.367330 -0.201797 -0.000000
v 0.356991 -0.202268 -0.000000
v 0.346082 -0.202425 -0.000000
vn 0.0000 -0.0000 1.0000
usemtl Material.001
s off
f 157//1 159//1 158//1
f 157//1 160//1 159//1
f 157//1 161//1 160//1
f 156//1 161//1 157//1
f 156//1 162//1 161//1
f 155//1 162//1 156//1
f 155//1 163//1 162//1
f 154//1 163//1 155//1
f 154//1 164//1 163//1
f 153//1 164//1 154//1
f 153//1 165//1 164//1
f 152//1 165//1 153//1
f 152//1 166//1 165//1
f 151//1 166//1 152//1
f 151//1 167//1 166//1
f 150//1 167//1 151//1
f 150//1 168//1 167//1
f 149//1 168//1 150//1
f 149//1 169//1 168//1
f 148//1 169//1 149//1
f 148//1 170//1 169//1
f 147//1 170//1 148//1
f 147//1 171//1 170//1
f 146//1 171//1 147//1
f 145//1 171//1 146//1
f 145//1 172//1 171//1
f 144//1 172//1 145//1
f 144//1 173//1 172//1
f 143//1 173//1 144//1
f 143//1 174//1 173//1
f 142//1 174//1 143//1
f 142//1 175//1 174//1
f 141//1 175//1 142//1
f 141//1 176//1 175//1
f 141//1 177//1 176//1
f 140//1 177//1 141//1
f 140//1 178//1 177//1
f 139//1 178//1 140//1
f 139//1 179//1 178//1
f 138//1 179//1 139//1
f 138//1 180//1 179//1
f 137//1 180//1 138//1
f 137//1 181//1 180//1
f 136//1 181//1 137//1
f 136//1 129//1 181//1
f 129//1 182//1 181//1
f 135//1 131//1 136//1
f 131//1 130//1 136//1
f 130//1 129//1 136//1
f 135//1 132//1 131//1
f 128//1 182//1 129//1
f 127//1 182//1 128//1
f 126//1 182//1 127//1
f 125//1 182//1 126//1
f 124//1 182//1 125//1
f 123//1 182//1 124//1
f 122//1 182//1 123//1
f 122//1 183//1 182//1
f 134//1 132//1 135//1
f 121//1 183//1 122//1
f 120//1 183//1 121//1
f 119//1 183//1 120//1
f 118//1 183//1 119//1
f 117//1 183//1 118//1
f 116//1 183//1 117//1
f 115//1 183//1 116//1
f 133//1 132//1 134//1
f 115//1 184//1 183//1
f 114//1 184//1 115//1
f 113//1 184//1 114//1
f 112//1 184//1 113//1
f 111//1 184//1 112//1
f 110//1 184//1 111//1
f 109//1 184//1 110//1
f 108//1 184//1 109//1
f 107//1 184//1 108//1
f 106//1 184//1 107//1
f 105//1 184//1 106//1
f 105//1 185//1 184//1
f 105//1 186//1 185//1
f 104//1 186//1 105//1
f 104//1 187//1 186//1
f 103//1 187//1 104//1
f 103//1 188//1 187//1
f 102//1 188//1 103//1
f 101//1 188//1 102//1
f 101//1 189//1 188//1
f 100//1 189//1 101//1
f 99//1 189//1 100//1
f 99//1 190//1 189//1
f 98//1 190//1 99//1
f 98//1 191//1 190//1
f 97//1 191//1 98//1
f 96//1 191//1 97//1
f 95//1 191//1 96//1
f 95//1 192//1 191//1
f 94//1 192//1 95//1
f 93//1 192//1 94//1
f 93//1 193//1 192//1
f 92//1 193//1 93//1
f 91//1 193//1 92//1
f 90//1 193//1 91//1
f 89//1 193//1 90//1
f 89//1 194//1 193//1
f 88//1 194//1 89//1
f 87//1 194//1 88//1
f 86//1 194//1 87//1
f 85//1 194//1 86//1
f 84//1 194//1 85//1
f 84//1 195//1 194//1
f 83//1 195//1 84//1
f 82//1 195//1 83//1
f 81//1 195//1 82//1
f 79//1 81//1 80//1
f 79//1 195//1 81//1
f 79//1 196//1 195//1
f 79//1 197//1 196//1
f 79//1 198//1 197//1
f 79//1 199//1 198//1
f 79//1 200//1 199//1
f 79//1 201//1 200//1
f 79//1 202//1 201//1
f 79//1 203//1 202//1
f 79//1 204//1 203//1
f 79//1 208//1 204//1
f 208//1 205//1 204//1
f 208//1 206//1 205//1
f 208//1 207//1 206//1
f 79//1 209//1 208//1
f 79//1 210//1 209//1
f 79//1 211//1 210//1
f 79//1 212//1 211//1
f 79//1 213//1 212//1
f 79//1 214//1 213//1
f 79//1 215//1 214//1
f 79//1 216//1 215//1
f 79//1 217//1 216//1
f 79//1 218//1 217//1
f 79//1 219//1 218//1
f 79//1 220//1 219//1
f 79//1 221//1 220//1
f 79//1 222//1 221//1
f 79//1 223//1 222//1
f 79//1 78//1 223//1
f 78//1 77//1 223//1
f 77//1 224//1 223//1
f 76//1 224//1 77//1
f 75//1 224//1 76//1
f 74//1 224//1 75//1
f 73//1 224//1 74//1
f 72//1 224//1 73//1
f 71//1 224//1 72//1
f 70//1 224//1 71//1
f 69//1 224//1 70//1
f 69//1 225//1 224//1
f 68//1 225//1 69//1
f 67//1 225//1 68//1
f 66//1 225//1 67//1
f 65//1 225//1 66//1
f 65//1 226//1 225//1
f 64//1 226//1 65//1
f 63//1 226//1 64//1
f 62//1 226//1 63//1
f 62//1 227//1 226//1
f 61//1 227//1 62//1
f 60//1 227//1 61//1
f 60//1 228//1 227//1
f 59//1 228//1 60//1
f 58//1 228//1 59//1
f 58//1 229//1 228//1
f 57//1 229//1 58//1
f 56//1 229//1 57//1
f 56//1 230//1 229//1
f 55//1 230//1 56//1
f 54//1 230//1 55//1
f 54//1 231//1 230//1
f 53//1 231//1 54//1
f 53//1 232//1 231//1
f 26//1 28//1 27//1
f 53//1 233//1 232//1
f 25//1 28//1 26//1
f 52//1 233//1 53//1
f 51//1 233//1 52//1
f 50//1 233//1 51//1
f 49//1 233//1 50//1
f 48//1 233//1 49//1
f 47//1 233//1 48//1
f 46//1 233//1 47//1
f 45//1 233//1 46//1
f 45//1 234//1 233//1
f 44//1 234//1 45//1
f 43//1 234//1 44//1
f 42//1 234//1 43//1
f 41//1 234//1 42//1
f 40//1 234//1 41//1
f 24//1 28//1 25//1
f 39//1 234//1 40//1
f 39//1 235//1 234//1
f 38//1 235//1 39//1
f 37//1 235//1 38//1
f 36//1 235//1 37//1
f 35//1 235//1 36//1
f 34//1 235//1 35//1
f 33//1 235//1 34//1
f 32//1 235//1 33//1
f 31//1 235//1 32//1
f 30//1 235//1 31//1
f 29//1 235//1 30//1
f 24//1 29//1 28//1
f 24//1 235//1 29//1
f 23//1 235//1 24//1
f 23//1 236//1 235//1
f 22//1 236//1 23//1
f 22//1 237//1 236//1
f 21//1 237//1 22//1
f 21//1 238//1 237//1
f 20//1 238//1 21//1
f 20//1 239//1 238//1
f 19//1 239//1 20//1
f 19//1 240//1 239//1
f 18//1 240//1 19//1
f 18//1 241//1 240//1
f 17//1 241//1 18//1
f 17//1 242//1 241//1
f 16//1 242//1 17//1
f 16//1 243//1 242//1
f 15//1 243//1 16//1
f 15//1 244//1 243//1
f 14//1 244//1 15//1
f 14//1 245//1 244//1
f 13//1 245//1 14//1
f 13//1 246//1 245//1
f 12//1 246//1 13//1
f 12//1 247//1 246//1
f 11//1 247//1 12//1
f 11//1 248//1 247//1
f 10//1 248//1 11//1
f 10//1 249//1 248//1
f 9//1 249//1 10//1
f 9//1 250//1 249//1
f 8//1 250//1 9//1
f 8//1 251//1 250//1
f 7//1 251//1 8//1
f 7//1 252//1 251//1
f 6//1 252//1 7//1
f 6//1 253//1 252//1
f 5//1 253//1 6//1
f 5//1 254//1 253//1
f 4//1 254//1 5//1
f 4//1 255//1 254//1
f 3//1 255//1 4//1
f 3//1 256//1 255//1
f 2//1 256//1 3//1
f 2//1 257//1 256//1
f 1//1 257//1 2//1
