# Blender v2.77 (sub 0) OBJ File: ''
# www.blender.org
mtllib 4.mtl
o Text_Mesh.001
v 0.292910 -0.208022 -0.000000
v 0.292910 -0.093750 -0.000000
v -0.080690 -0.093750 -0.000000
v -0.080690 -0.011194 -0.000000
v 0.288713 0.296175 0.000000
v 0.396922 0.296175 0.000000
v 0.396922 -0.011194 -0.000000
v 0.516325 -0.011194 -0.000000
v 0.516325 -0.093750 -0.000000
v 0.396922 -0.093750 -0.000000
v 0.396922 -0.208022 -0.000000
v 0.292910 -0.011194 -0.000000
v 0.292910 0.209422 0.000000
v 0.023321 -0.011194 -0.000000
vn 0.0000 -0.0000 1.0000
vn 0.0000 0.0000 -1.0000
usemtl Material.001
s off
f 4//1 6//1 5//1
f 4//1 13//1 6//1
f 13//1 7//1 6//1
f 4//1 14//1 13//1
f 12//1 7//1 13//1
f 3//1 14//1 4//1
f 3//1 12//1 14//1
f 3//1 7//1 12//1
f 3//1 8//1 7//1
f 3//1 9//1 8//1
f 2//2 9//2 3//2
f 1//1 10//1 2//1
f 10//1 9//1 2//1
f 1//1 11//1 10//1
