# Blender v2.77 (sub 0) OBJ File: ''
# www.blender.org
mtllib 6.mtl
o Text_Mesh.001
v 0.055037 0.020056 0.000000
v 0.054885 0.019045 0.000000
v 0.054739 0.018035 0.000000
v 0.054600 0.017024 0.000000
v 0.054467 0.016014 0.000000
v 0.054341 0.015003 0.000000
v 0.054221 0.013993 0.000000
v 0.054108 0.012982 0.000000
v 0.054001 0.011971 0.000000
v 0.053900 0.010961 0.000000
v 0.053806 0.009950 0.000000
v 0.053719 0.008940 0.000000
v 0.053638 0.007929 0.000000
v 0.053564 0.006889 0.000000
v 0.053496 0.005791 0.000000
v 0.053434 0.004635 0.000000
v 0.053379 0.003420 0.000000
v 0.053330 0.002147 0.000000
v 0.053288 0.000816 0.000000
v 0.053253 -0.000573 -0.000000
v 0.053223 -0.002021 -0.000000
v 0.053201 -0.003527 -0.000000
v 0.053185 -0.005092 -0.000000
v 0.053175 -0.006714 -0.000000
v 0.053172 -0.008396 -0.000000
v 0.053303 -0.019912 -0.000000
v 0.053696 -0.030673 -0.000000
v 0.054352 -0.040680 -0.000000
v 0.055271 -0.049933 -0.000000
v 0.056451 -0.058430 -0.000000
v 0.057894 -0.066173 -0.000000
v 0.059599 -0.073161 -0.000000
v 0.061567 -0.079395 -0.000000
v 0.063797 -0.084873 -0.000000
v 0.066290 -0.089598 -0.000000
v 0.069044 -0.093567 -0.000000
v 0.072062 -0.096782 -0.000000
v 0.075526 -0.099501 -0.000000
v 0.079621 -0.101984 -0.000000
v 0.084349 -0.104230 -0.000000
v 0.089708 -0.106240 -0.000000
v 0.095698 -0.108013 -0.000000
v 0.102320 -0.109550 -0.000000
v 0.109574 -0.110850 -0.000000
v 0.117460 -0.111914 -0.000000
v 0.125977 -0.112742 -0.000000
v 0.135125 -0.113333 -0.000000
v 0.144905 -0.113688 -0.000000
v 0.155317 -0.113806 -0.000000
v 0.292910 -0.113806 -0.000000
v 0.301165 -0.113719 -0.000000
v 0.308982 -0.113456 -0.000000
v 0.316363 -0.113019 -0.000000
v 0.323305 -0.112407 -0.000000
v 0.329811 -0.111620 -0.000000
v 0.335879 -0.110658 -0.000000
v 0.341510 -0.109521 -0.000000
v 0.346704 -0.108209 -0.000000
v 0.351460 -0.106722 -0.000000
v 0.355780 -0.105061 -0.000000
v 0.359662 -0.103224 -0.000000
v 0.363106 -0.101213 -0.000000
v 0.366198 -0.098965 -0.000000
v 0.369021 -0.096419 -0.000000
v 0.371575 -0.093575 -0.000000
v 0.373860 -0.090433 -0.000000
v 0.375876 -0.086993 -0.000000
v 0.377624 -0.083256 -0.000000
v 0.379102 -0.079220 -0.000000
v 0.380312 -0.074886 -0.000000
v 0.381253 -0.070254 -0.000000
v 0.381925 -0.065324 -0.000000
v 0.382328 -0.060097 -0.000000
v 0.382463 -0.054571 -0.000000
v 0.382463 -0.027519 -0.000000
v 0.382312 -0.021920 -0.000000
v 0.381860 -0.016629 -0.000000
v 0.381107 -0.011646 -0.000000
v 0.380053 -0.006970 -0.000000
v 0.378697 -0.002603 -0.000000
v 0.377041 0.001458 0.000000
v 0.375083 0.005210 0.000000
v 0.372823 0.008655 0.000000
v 0.370263 0.011792 0.000000
v 0.367401 0.014621 0.000000
v 0.364238 0.017142 0.000000
v 0.360774 0.019356 0.000000
v 0.356857 0.021331 0.000000
v 0.352333 0.023133 0.000000
v 0.347204 0.024764 0.000000
v 0.341470 0.026223 0.000000
v 0.335129 0.027511 0.000000
v 0.328183 0.028626 0.000000
v 0.320632 0.029571 0.000000
v 0.312474 0.030343 0.000000
v 0.303711 0.030944 0.000000
v 0.294342 0.031373 0.000000
v 0.284368 0.031631 0.000000
v 0.273787 0.031716 0.000000
v 0.264989 0.031695 0.000000
v 0.256161 0.031632 0.000000
v 0.247304 0.031527 0.000000
v 0.238417 0.031380 0.000000
v 0.229502 0.031190 0.000000
v 0.220557 0.030958 0.000000
v 0.211584 0.030685 0.000000
v 0.202581 0.030369 0.000000
v 0.193549 0.030011 0.000000
v 0.184488 0.029611 0.000000
v 0.175397 0.029169 0.000000
v 0.166278 0.028685 0.000000
v 0.157133 0.028162 0.000000
v 0.147965 0.027603 0.000000
v 0.138774 0.027008 0.000000
v 0.129561 0.026379 0.000000
v 0.120324 0.025713 0.000000
v 0.111066 0.025012 0.000000
v 0.101784 0.024275 0.000000
v 0.092480 0.023502 0.000000
v 0.083154 0.022694 0.000000
v 0.073804 0.021850 0.000000
v 0.064432 0.020971 0.000000
v 0.061567 0.094683 0.000000
v 0.070959 0.096055 0.000000
v 0.080321 0.097371 0.000000
v 0.089654 0.098633 0.000000
v 0.098958 0.099839 0.000000
v 0.108233 0.100991 0.000000
v 0.117479 0.102087 0.000000
v 0.126696 0.103129 0.000000
v 0.135883 0.104115 0.000000
v 0.145041 0.105046 0.000000
v 0.154171 0.105922 0.000000
v 0.163271 0.106743 0.000000
v 0.172341 0.107509 0.000000
v 0.181386 0.108217 0.000000
v 0.190409 0.108863 0.000000
v 0.199408 0.109448 0.000000
v 0.208385 0.109971 0.000000
v 0.217339 0.110433 0.000000
v 0.226271 0.110833 0.000000
v 0.235180 0.111171 0.000000
v 0.244066 0.111448 0.000000
v 0.252930 0.111663 0.000000
v 0.261771 0.111817 0.000000
v 0.270589 0.111910 0.000000
v 0.279384 0.111940 0.000000
v 0.298763 0.111748 0.000000
v 0.317099 0.111169 0.000000
v 0.334392 0.110206 0.000000
v 0.350643 0.108857 0.000000
v 0.365850 0.107122 0.000000
v 0.380014 0.105002 0.000000
v 0.393135 0.102497 0.000000
v 0.405214 0.099606 0.000000
v 0.416249 0.096330 0.000000
v 0.426241 0.092668 0.000000
v 0.435191 0.088621 0.000000
v 0.443097 0.084188 0.000000
v 0.450174 0.079257 0.000000
v 0.456636 0.073713 0.000000
v 0.462482 0.067558 0.000000
v 0.467713 0.060790 0.000000
v 0.472329 0.053410 0.000000
v 0.476329 0.045417 0.000000
v 0.479714 0.036813 0.000000
v 0.482483 0.027596 0.000000
v 0.484637 0.017768 0.000000
v 0.486176 0.007327 0.000000
v 0.487099 -0.003726 -0.000000
v 0.487407 -0.015392 -0.000000
v 0.487407 -0.082090 -0.000000
v 0.487122 -0.092127 -0.000000
v 0.486267 -0.101718 -0.000000
v 0.484841 -0.110862 -0.000000
v 0.482846 -0.119558 -0.000000
v 0.480281 -0.127808 -0.000000
v 0.477145 -0.135611 -0.000000
v 0.473440 -0.142967 -0.000000
v 0.469165 -0.149876 -0.000000
v 0.464319 -0.156337 -0.000000
v 0.458903 -0.162352 -0.000000
v 0.452918 -0.167920 -0.000000
v 0.446362 -0.173041 -0.000000
v 0.439204 -0.177734 -0.000000
v 0.431411 -0.182020 -0.000000
v 0.422983 -0.185897 -0.000000
v 0.413920 -0.189366 -0.000000
v 0.404222 -0.192427 -0.000000
v 0.393890 -0.195079 -0.000000
v 0.382923 -0.197324 -0.000000
v 0.371320 -0.199160 -0.000000
v 0.359083 -0.200589 -0.000000
v 0.346212 -0.201609 -0.000000
v 0.332705 -0.202221 -0.000000
v 0.318563 -0.202425 -0.000000
v 0.110075 -0.202425 -0.000000
v 0.094935 -0.202199 -0.000000
v 0.080613 -0.201518 -0.000000
v 0.067106 -0.200385 -0.000000
v 0.054415 -0.198798 -0.000000
v 0.042541 -0.196757 -0.000000
v 0.031483 -0.194263 -0.000000
v 0.021241 -0.191316 -0.000000
v 0.011816 -0.187915 -0.000000
v 0.003207 -0.184060 -0.000000
v -0.004586 -0.179752 -0.000000
v -0.011563 -0.174991 -0.000000
v -0.017724 -0.169776 -0.000000
v -0.023237 -0.163959 -0.000000
v -0.028270 -0.157390 -0.000000
v -0.032824 -0.150070 -0.000000
v -0.036899 -0.141998 -0.000000
v -0.040494 -0.133175 -0.000000
v -0.043610 -0.123601 -0.000000
v -0.046247 -0.113275 -0.000000
v -0.048404 -0.102197 -0.000000
v -0.050082 -0.090368 -0.000000
v -0.051280 -0.077788 -0.000000
v -0.051999 -0.064456 -0.000000
v -0.052239 -0.050373 -0.000000
v -0.052239 0.014459 0.000000
v -0.051576 0.036959 0.000000
v -0.049589 0.058594 0.000000
v -0.046277 0.079364 0.000000
v -0.041641 0.099269 0.000000
v -0.035679 0.118310 0.000000
v -0.028393 0.136486 0.000000
v -0.019782 0.153796 0.000000
v -0.009847 0.170243 0.000000
v 0.001414 0.185824 0.000000
v 0.013999 0.200540 0.000000
v 0.027909 0.214392 0.000000
v 0.043144 0.227379 0.000000
v 0.059583 0.239410 0.000000
v 0.077108 0.250395 0.000000
v 0.095718 0.260334 0.000000
v 0.115413 0.269227 0.000000
v 0.136192 0.277073 0.000000
v 0.158057 0.283874 0.000000
v 0.181007 0.289628 0.000000
v 0.205042 0.294336 0.000000
v 0.230163 0.297997 0.000000
v 0.256368 0.300613 0.000000
v 0.283658 0.302182 0.000000
v 0.312034 0.302705 0.000000
v 0.313130 0.302704 0.000000
v 0.314243 0.302699 0.000000
v 0.315371 0.302691 0.000000
v 0.316516 0.302679 0.000000
v 0.317678 0.302665 0.000000
v 0.318855 0.302647 0.000000
v 0.320049 0.302626 0.000000
v 0.321258 0.302602 0.000000
v 0.322484 0.302574 0.000000
v 0.323726 0.302543 0.000000
v 0.324985 0.302509 0.000000
v 0.326259 0.302472 0.000000
v 0.327579 0.302425 0.000000
v 0.328974 0.302362 0.000000
v 0.330443 0.302283 0.000000
v 0.331986 0.302187 0.000000
v 0.333604 0.302075 0.000000
v 0.335296 0.301947 0.000000
v 0.337063 0.301803 0.000000
v 0.338904 0.301643 0.000000
v 0.340820 0.301466 0.000000
v 0.342811 0.301274 0.000000
v 0.344876 0.301065 0.000000
v 0.347015 0.300840 0.000000
v 0.415112 0.221548 0.000000
v 0.383395 0.221548 0.000000
v 0.357804 0.221349 0.000000
v 0.333424 0.220752 0.000000
v 0.310255 0.219756 0.000000
v 0.288298 0.218361 0.000000
v 0.267552 0.216569 0.000000
v 0.248018 0.214377 0.000000
v 0.229695 0.211788 0.000000
v 0.212583 0.208800 0.000000
v 0.196683 0.205413 0.000000
v 0.181994 0.201629 0.000000
v 0.168516 0.197445 0.000000
v 0.156250 0.192864 0.000000
v 0.144904 0.187800 0.000000
v 0.134186 0.182169 0.000000
v 0.124096 0.175971 0.000000
v 0.114635 0.169206 0.000000
v 0.105802 0.161875 0.000000
v 0.097598 0.153976 0.000000
v 0.090022 0.145511 0.000000
v 0.083074 0.136479 0.000000
v 0.076755 0.126880 0.000000
v 0.071064 0.116715 0.000000
v 0.066001 0.105982 0.000000
vn 0.0000 -0.0000 1.0000
usemtl Material.001
s off
f 245//1 247//1 246//1
f 245//1 248//1 247//1
f 245//1 249//1 248//1
f 245//1 250//1 249//1
f 245//1 251//1 250//1
f 245//1 252//1 251//1
f 245//1 253//1 252//1
f 245//1 254//1 253//1
f 245//1 255//1 254//1
f 245//1 256//1 255//1
f 245//1 257//1 256//1
f 245//1 258//1 257//1
f 245//1 259//1 258//1
f 245//1 260//1 259//1
f 245//1 261//1 260//1
f 245//1 262//1 261//1
f 245//1 263//1 262//1
f 244//1 263//1 245//1
f 244//1 264//1 263//1
f 244//1 265//1 264//1
f 244//1 266//1 265//1
f 244//1 267//1 266//1
f 244//1 268//1 267//1
f 244//1 269//1 268//1
f 244//1 270//1 269//1
f 244//1 271//1 270//1
f 243//1 271//1 244//1
f 242//1 271//1 243//1
f 241//1 271//1 242//1
f 240//1 271//1 241//1
f 239//1 271//1 240//1
f 238//1 271//1 239//1
f 237//1 271//1 238//1
f 236//1 271//1 237//1
f 235//1 271//1 236//1
f 234//1 271//1 235//1
f 233//1 273//1 234//1
f 273//1 272//1 234//1
f 272//1 271//1 234//1
f 233//1 274//1 273//1
f 233//1 275//1 274//1
f 233//1 276//1 275//1
f 233//1 277//1 276//1
f 233//1 278//1 277//1
f 232//1 278//1 233//1
f 232//1 279//1 278//1
f 232//1 280//1 279//1
f 232//1 281//1 280//1
f 232//1 282//1 281//1
f 232//1 283//1 282//1
f 231//1 283//1 232//1
f 231//1 284//1 283//1
f 231//1 285//1 284//1
f 231//1 286//1 285//1
f 230//1 286//1 231//1
f 230//1 287//1 286//1
f 230//1 288//1 287//1
f 229//1 288//1 230//1
f 229//1 289//1 288//1
f 229//1 290//1 289//1
f 229//1 291//1 290//1
f 228//1 291//1 229//1
f 228//1 292//1 291//1
f 227//1 292//1 228//1
f 227//1 293//1 292//1
f 227//1 294//1 293//1
f 226//1 294//1 227//1
f 226//1 295//1 294//1
f 146//1 148//1 147//1
f 145//1 148//1 146//1
f 144//1 148//1 145//1
f 144//1 149//1 148//1
f 143//1 149//1 144//1
f 142//1 149//1 143//1
f 141//1 149//1 142//1
f 141//1 150//1 149//1
f 140//1 150//1 141//1
f 139//1 150//1 140//1
f 139//1 151//1 150//1
f 138//1 151//1 139//1
f 137//1 151//1 138//1
f 136//1 151//1 137//1
f 136//1 152//1 151//1
f 135//1 152//1 136//1
f 134//1 152//1 135//1
f 134//1 153//1 152//1
f 133//1 153//1 134//1
f 226//1 123//1 295//1
f 132//1 153//1 133//1
f 131//1 153//1 132//1
f 131//1 154//1 153//1
f 130//1 154//1 131//1
f 129//1 154//1 130//1
f 129//1 155//1 154//1
f 128//1 155//1 129//1
f 127//1 155//1 128//1
f 126//1 155//1 127//1
f 126//1 156//1 155//1
f 225//1 123//1 226//1
f 125//1 156//1 126//1
f 124//1 156//1 125//1
f 124//1 157//1 156//1
f 123//1 157//1 124//1
f 225//1 157//1 123//1
f 225//1 158//1 157//1
f 225//1 159//1 158//1
f 225//1 160//1 159//1
f 224//1 160//1 225//1
f 224//1 161//1 160//1
f 224//1 162//1 161//1
f 224//1 163//1 162//1
f 224//1 164//1 163//1
f 223//1 164//1 224//1
f 223//1 165//1 164//1
f 223//1 166//1 165//1
f 222//1 114//1 223//1
f 114//1 113//1 223//1
f 113//1 112//1 223//1
f 112//1 111//1 223//1
f 111//1 110//1 223//1
f 110//1 109//1 223//1
f 109//1 108//1 223//1
f 108//1 107//1 223//1
f 107//1 106//1 223//1
f 106//1 105//1 223//1
f 105//1 104//1 223//1
f 104//1 166//1 223//1
f 104//1 103//1 166//1
f 103//1 102//1 166//1
f 102//1 101//1 166//1
f 101//1 100//1 166//1
f 100//1 99//1 166//1
f 99//1 98//1 166//1
f 98//1 167//1 166//1
f 97//1 167//1 98//1
f 96//1 167//1 97//1
f 95//1 167//1 96//1
f 94//1 167//1 95//1
f 93//1 167//1 94//1
f 92//1 167//1 93//1
f 92//1 168//1 167//1
f 91//1 168//1 92//1
f 222//1 115//1 114//1
f 222//1 116//1 115//1
f 90//1 168//1 91//1
f 222//1 117//1 116//1
f 222//1 118//1 117//1
f 89//1 168//1 90//1
f 222//1 119//1 118//1
f 222//1 120//1 119//1
f 88//1 168//1 89//1
f 222//1 121//1 120//1
f 222//1 122//1 121//1
f 87//1 168//1 88//1
f 222//1 1//1 122//1
f 222//1 2//1 1//1
f 86//1 168//1 87//1
f 222//1 3//1 2//1
f 222//1 4//1 3//1
f 86//1 169//1 168//1
f 85//1 169//1 86//1
f 222//1 5//1 4//1
f 222//1 6//1 5//1
f 222//1 7//1 6//1
f 84//1 169//1 85//1
f 221//1 7//1 222//1
f 221//1 8//1 7//1
f 221//1 9//1 8//1
f 221//1 10//1 9//1
f 83//1 169//1 84//1
f 221//1 11//1 10//1
f 221//1 12//1 11//1
f 221//1 13//1 12//1
f 82//1 169//1 83//1
f 221//1 14//1 13//1
f 82//1 170//1 169//1
f 221//1 15//1 14//1
f 221//1 16//1 15//1
f 81//1 170//1 82//1
f 221//1 17//1 16//1
f 221//1 18//1 17//1
f 221//1 19//1 18//1
f 80//1 170//1 81//1
f 221//1 20//1 19//1
f 221//1 21//1 20//1
f 221//1 22//1 21//1
f 79//1 170//1 80//1
f 221//1 23//1 22//1
f 79//1 171//1 170//1
f 221//1 24//1 23//1
f 221//1 25//1 24//1
f 78//1 171//1 79//1
f 221//1 26//1 25//1
f 77//1 171//1 78//1
f 77//1 172//1 171//1
f 76//1 172//1 77//1
f 221//1 27//1 26//1
f 75//1 172//1 76//1
f 74//1 172//1 75//1
f 221//1 28//1 27//1
f 221//1 29//1 28//1
f 221//1 30//1 29//1
f 220//1 30//1 221//1
f 73//1 172//1 74//1
f 220//1 31//1 30//1
f 72//1 172//1 73//1
f 219//1 31//1 220//1
f 71//1 172//1 72//1
f 219//1 32//1 31//1
f 70//1 172//1 71//1
f 219//1 33//1 32//1
f 69//1 172//1 70//1
f 218//1 33//1 219//1
f 68//1 172//1 69//1
f 218//1 34//1 33//1
f 68//1 173//1 172//1
f 67//1 173//1 68//1
f 218//1 35//1 34//1
f 66//1 173//1 67//1
f 218//1 36//1 35//1
f 217//1 36//1 218//1
f 65//1 173//1 66//1
f 65//1 174//1 173//1
f 217//1 37//1 36//1
f 64//1 174//1 65//1
f 63//1 174//1 64//1
f 217//1 38//1 37//1
f 62//1 174//1 63//1
f 217//1 39//1 38//1
f 61//1 174//1 62//1
f 61//1 175//1 174//1
f 217//1 40//1 39//1
f 216//1 40//1 217//1
f 60//1 175//1 61//1
f 216//1 41//1 40//1
f 59//1 175//1 60//1
f 216//1 42//1 41//1
f 58//1 175//1 59//1
f 216//1 43//1 42//1
f 57//1 175//1 58//1
f 56//1 175//1 57//1
f 216//1 44//1 43//1
f 55//1 175//1 56//1
f 216//1 45//1 44//1
f 55//1 176//1 175//1
f 54//1 176//1 55//1
f 216//1 46//1 45//1
f 53//1 176//1 54//1
f 216//1 47//1 46//1
f 52//1 176//1 53//1
f 215//1 47//1 216//1
f 215//1 48//1 47//1
f 51//1 176//1 52//1
f 215//1 49//1 48//1
f 50//1 176//1 51//1
f 215//1 50//1 49//1
f 215//1 176//1 50//1
f 215//1 177//1 176//1
f 214//1 177//1 215//1
f 214//1 178//1 177//1
f 213//1 178//1 214//1
f 213//1 179//1 178//1
f 212//1 179//1 213//1
f 212//1 180//1 179//1
f 212//1 181//1 180//1
f 211//1 181//1 212//1
f 211//1 182//1 181//1
f 210//1 182//1 211//1
f 210//1 183//1 182//1
f 209//1 183//1 210//1
f 209//1 184//1 183//1
f 208//1 184//1 209//1
f 208//1 185//1 184//1
f 207//1 185//1 208//1
f 207//1 186//1 185//1
f 206//1 186//1 207//1
f 206//1 187//1 186//1
f 205//1 187//1 206//1
f 205//1 188//1 187//1
f 204//1 188//1 205//1
f 204//1 189//1 188//1
f 203//1 189//1 204//1
f 203//1 190//1 189//1
f 202//1 190//1 203//1
f 202//1 191//1 190//1
f 201//1 191//1 202//1
f 201//1 192//1 191//1
f 200//1 192//1 201//1
f 200//1 193//1 192//1
f 199//1 193//1 200//1
f 199//1 194//1 193//1
f 198//1 194//1 199//1
f 198//1 195//1 194//1
f 197//1 195//1 198//1
f 197//1 196//1 195//1
