# Blender v2.77 (sub 0) OBJ File: ''
# www.blender.org
mtllib 7.mtl
o Text_Mesh.001
v 0.107276 -0.210821 -0.000000
v 0.373134 0.206623 0.000000
v 0.047108 0.206623 0.000000
v 0.047108 0.100280 0.000000
v -0.056903 0.118470 0.000000
v -0.056903 0.290578 0.000000
v 0.490672 0.290578 0.000000
v 0.490672 0.211287 0.000000
v 0.232743 -0.210821 -0.000000
vn 0.0000 -0.0000 1.0000
usemtl Material.001
s off
f 5//1 3//1 6//1
f 3//1 7//1 6//1
f 3//1 8//1 7//1
f 3//1 2//1 8//1
f 2//1 9//1 8//1
f 5//1 4//1 3//1
f 1//1 9//1 2//1
