# Blender v2.77 (sub 0) OBJ File: ''
# www.blender.org
mtllib 8.mtl
o Text_Mesh.001
v 0.364272 0.290578 0.000000
v 0.375086 0.290436 0.000000
v 0.385294 0.290008 0.000000
v 0.394896 0.289296 0.000000
v 0.403892 0.288298 0.000000
v 0.412283 0.287015 0.000000
v 0.420068 0.285448 0.000000
v 0.427247 0.283595 0.000000
v 0.433820 0.281457 0.000000
v 0.439788 0.279034 0.000000
v 0.445151 0.276327 0.000000
v 0.449907 0.273334 0.000000
v 0.454058 0.270056 0.000000
v 0.457745 0.266393 0.000000
v 0.461112 0.262243 0.000000
v 0.464159 0.257608 0.000000
v 0.466884 0.252488 0.000000
v 0.469289 0.246881 0.000000
v 0.471374 0.240788 0.000000
v 0.473137 0.234210 0.000000
v 0.474580 0.227146 0.000000
v 0.475703 0.219595 0.000000
v 0.476504 0.211559 0.000000
v 0.476985 0.203038 0.000000
v 0.477145 0.194030 0.000000
v 0.477145 0.149254 0.000000
v 0.477000 0.142251 0.000000
v 0.476562 0.135546 0.000000
v 0.475834 0.129139 0.000000
v 0.474813 0.123031 0.000000
v 0.473502 0.117220 0.000000
v 0.471898 0.111707 0.000000
v 0.470003 0.106492 0.000000
v 0.467817 0.101575 0.000000
v 0.465339 0.096957 0.000000
v 0.462570 0.092636 0.000000
v 0.459509 0.088613 0.000000
v 0.456157 0.084888 0.000000
v 0.452438 0.081393 0.000000
v 0.448279 0.078060 0.000000
v 0.443680 0.074889 0.000000
v 0.438640 0.071880 0.000000
v 0.433160 0.069033 0.000000
v 0.427239 0.066348 0.000000
v 0.420877 0.063825 0.000000
v 0.414075 0.061463 0.000000
v 0.406833 0.059264 0.000000
v 0.399150 0.057227 0.000000
v 0.391027 0.055351 0.000000
v 0.382463 0.053638 0.000000
v 0.391357 0.052504 0.000000
v 0.399850 0.051125 0.000000
v 0.407941 0.049499 0.000000
v 0.415630 0.047626 0.000000
v 0.422918 0.045508 0.000000
v 0.429804 0.043144 0.000000
v 0.436289 0.040533 0.000000
v 0.442371 0.037676 0.000000
v 0.448053 0.034573 0.000000
v 0.453332 0.031224 0.000000
v 0.458210 0.027629 0.000000
v 0.462687 0.023787 0.000000
v 0.466784 0.019677 0.000000
v 0.470525 0.015275 0.000000
v 0.473910 0.010582 0.000000
v 0.476938 0.005597 0.000000
v 0.479610 0.000321 0.000000
v 0.481926 -0.005247 -0.000000
v 0.483886 -0.011107 -0.000000
v 0.485489 -0.017257 -0.000000
v 0.486736 -0.023700 -0.000000
v 0.487627 -0.030434 -0.000000
v 0.488161 -0.037459 -0.000000
v 0.488340 -0.044776 -0.000000
v 0.488340 -0.096549 -0.000000
v 0.488157 -0.106317 -0.000000
v 0.487608 -0.115568 -0.000000
v 0.486692 -0.124300 -0.000000
v 0.485411 -0.132515 -0.000000
v 0.483764 -0.140210 -0.000000
v 0.481751 -0.147388 -0.000000
v 0.479372 -0.154047 -0.000000
v 0.476627 -0.160189 -0.000000
v 0.473516 -0.165812 -0.000000
v 0.470039 -0.170916 -0.000000
v 0.466196 -0.175503 -0.000000
v 0.461987 -0.179571 -0.000000
v 0.457308 -0.183221 -0.000000
v 0.452056 -0.186554 -0.000000
v 0.446231 -0.189570 -0.000000
v 0.439832 -0.192268 -0.000000
v 0.432860 -0.194648 -0.000000
v 0.425315 -0.196712 -0.000000
v 0.417196 -0.198458 -0.000000
v 0.408504 -0.199886 -0.000000
v 0.399239 -0.200997 -0.000000
v 0.389401 -0.201791 -0.000000
v 0.378989 -0.202267 -0.000000
v 0.368004 -0.202425 -0.000000
v 0.053172 -0.202425 -0.000000
v 0.042263 -0.202268 -0.000000
v 0.031924 -0.201797 -0.000000
v 0.022155 -0.201012 -0.000000
v 0.012956 -0.199912 -0.000000
v 0.004327 -0.198498 -0.000000
v -0.003731 -0.196770 -0.000000
v -0.011220 -0.194728 -0.000000
v -0.018138 -0.192371 -0.000000
v -0.024487 -0.189701 -0.000000
v -0.030265 -0.186716 -0.000000
v -0.035474 -0.183417 -0.000000
v -0.040112 -0.179804 -0.000000
v -0.044284 -0.175770 -0.000000
v -0.048093 -0.171208 -0.000000
v -0.051539 -0.166118 -0.000000
v -0.054623 -0.160500 -0.000000
v -0.057343 -0.154354 -0.000000
v -0.059701 -0.147680 -0.000000
v -0.061697 -0.140478 -0.000000
v -0.063329 -0.132748 -0.000000
v -0.064599 -0.124490 -0.000000
v -0.065506 -0.115704 -0.000000
v -0.066050 -0.106390 -0.000000
v -0.066231 -0.096549 -0.000000
v -0.066231 -0.044776 -0.000000
v -0.066053 -0.037532 -0.000000
v -0.065519 -0.030570 -0.000000
v -0.064628 -0.023889 -0.000000
v -0.063381 -0.017491 -0.000000
v -0.061778 -0.011374 -0.000000
v -0.059818 -0.005539 -0.000000
v -0.057502 0.000015 0.000000
v -0.054830 0.005286 0.000000
v -0.051802 0.010276 0.000000
v -0.048417 0.014984 0.000000
v -0.044676 0.019410 0.000000
v -0.040578 0.023554 0.000000
v -0.036109 0.027433 0.000000
v -0.031250 0.031062 0.000000
v -0.026003 0.034442 0.000000
v -0.020367 0.037573 0.000000
v -0.014342 0.040454 0.000000
v -0.007929 0.043085 0.000000
v -0.001127 0.045468 0.000000
v 0.006063 0.047601 0.000000
v 0.013643 0.049484 0.000000
v 0.021611 0.051118 0.000000
v 0.029967 0.052503 0.000000
v 0.038713 0.053638 0.000000
v 0.030222 0.055426 0.000000
v 0.022161 0.057369 0.000000
v 0.014532 0.059468 0.000000
v 0.007333 0.061723 0.000000
v 0.000565 0.064132 0.000000
v -0.005772 0.066698 0.000000
v -0.011678 0.069419 0.000000
v -0.017154 0.072295 0.000000
v -0.022199 0.075326 0.000000
v -0.026813 0.078514 0.000000
v -0.030996 0.081856 0.000000
v -0.034748 0.085354 0.000000
v -0.038138 0.089076 0.000000
v -0.041233 0.093089 0.000000
v -0.044033 0.097394 0.000000
v -0.046538 0.101990 0.000000
v -0.048749 0.106878 0.000000
v -0.050665 0.112057 0.000000
v -0.052286 0.117528 0.000000
v -0.053612 0.123290 0.000000
v -0.054644 0.129344 0.000000
v -0.055381 0.135689 0.000000
v -0.055823 0.142325 0.000000
v -0.055970 0.149254 0.000000
v -0.055970 0.194030 0.000000
v -0.055810 0.203038 0.000000
v -0.055329 0.211559 0.000000
v -0.054527 0.219595 0.000000
v -0.053405 0.227146 0.000000
v -0.051962 0.234210 0.000000
v -0.050198 0.240788 0.000000
v -0.048114 0.246881 0.000000
v -0.045709 0.252488 0.000000
v -0.042983 0.257608 0.000000
v -0.039937 0.262243 0.000000
v -0.036570 0.266393 0.000000
v -0.032882 0.270056 0.000000
v -0.028732 0.273334 0.000000
v -0.023975 0.276327 0.000000
v -0.018613 0.279034 0.000000
v -0.012645 0.281457 0.000000
v -0.006072 0.283595 0.000000
v 0.001108 0.285448 0.000000
v 0.008893 0.287015 0.000000
v 0.017283 0.288298 0.000000
v 0.026280 0.289296 0.000000
v 0.035882 0.290008 0.000000
v 0.046090 0.290436 0.000000
v 0.056903 0.290578 0.000000
v 0.326026 0.206623 0.000000
v 0.096082 0.206623 0.000000
v 0.091470 0.206560 0.000000
v 0.087116 0.206370 0.000000
v 0.083022 0.206055 0.000000
v 0.079187 0.205613 0.000000
v 0.075612 0.205044 0.000000
v 0.072295 0.204349 0.000000
v 0.069237 0.203528 0.000000
v 0.066439 0.202581 0.000000
v 0.063899 0.201507 0.000000
v 0.061619 0.200307 0.000000
v 0.059598 0.198981 0.000000
v 0.057836 0.197528 0.000000
v 0.056271 0.195887 0.000000
v 0.054843 0.193997 0.000000
v 0.053551 0.191858 0.000000
v 0.052394 0.189469 0.000000
v 0.051374 0.186831 0.000000
v 0.050490 0.183944 0.000000
v 0.049742 0.180807 0.000000
v 0.049129 0.177420 0.000000
v 0.048653 0.173784 0.000000
v 0.048313 0.169899 0.000000
v 0.048109 0.165765 0.000000
v 0.048041 0.161381 0.000000
v 0.048041 0.136660 0.000000
v 0.048109 0.132351 0.000000
v 0.048313 0.128284 0.000000
v 0.048653 0.124461 0.000000
v 0.049129 0.120880 0.000000
v 0.049742 0.117542 0.000000
v 0.050490 0.114447 0.000000
v 0.051374 0.111595 0.000000
v 0.052394 0.108986 0.000000
v 0.053551 0.106620 0.000000
v 0.054843 0.104497 0.000000
v 0.056271 0.102617 0.000000
v 0.057836 0.100979 0.000000
v 0.059598 0.099527 0.000000
v 0.061619 0.098200 0.000000
v 0.063899 0.097000 0.000000
v 0.066439 0.095927 0.000000
v 0.069237 0.094979 0.000000
v 0.072295 0.094158 0.000000
v 0.075612 0.093463 0.000000
v 0.079187 0.092895 0.000000
v 0.083022 0.092453 0.000000
v 0.087116 0.092137 0.000000
v 0.091470 0.091947 0.000000
v 0.096082 0.091884 0.000000
v 0.326026 0.091884 0.000000
v 0.330562 0.091946 0.000000
v 0.334843 0.092130 0.000000
v 0.338867 0.092438 0.000000
v 0.342636 0.092869 0.000000
v 0.346148 0.093423 0.000000
v 0.349405 0.094100 0.000000
v 0.352406 0.094900 0.000000
v 0.355151 0.095823 0.000000
v 0.357640 0.096869 0.000000
v 0.359874 0.098038 0.000000
v 0.361851 0.099331 0.000000
v 0.363573 0.100746 0.000000
v 0.365100 0.102350 0.000000
v 0.366494 0.104206 0.000000
v 0.367756 0.106314 0.000000
v 0.368885 0.108675 0.000000
v 0.369881 0.111289 0.000000
v 0.370744 0.114156 0.000000
v 0.371474 0.117275 0.000000
v 0.372072 0.120647 0.000000
v 0.372537 0.124271 0.000000
v 0.372869 0.128148 0.000000
v 0.373068 0.132278 0.000000
v 0.373134 0.136660 0.000000
v 0.373134 0.161381 0.000000
v 0.373068 0.165837 0.000000
v 0.372869 0.170035 0.000000
v 0.372537 0.173974 0.000000
v 0.372072 0.177653 0.000000
v 0.371474 0.181074 0.000000
v 0.370744 0.184235 0.000000
v 0.369881 0.187137 0.000000
v 0.368885 0.189780 0.000000
v 0.367756 0.192164 0.000000
v 0.366494 0.194289 0.000000
v 0.365100 0.196155 0.000000
v 0.363573 0.197761 0.000000
v 0.361851 0.199177 0.000000
v 0.359874 0.200469 0.000000
v 0.357640 0.201638 0.000000
v 0.355151 0.202684 0.000000
v 0.352406 0.203608 0.000000
v 0.349405 0.204408 0.000000
v 0.346148 0.205085 0.000000
v 0.342636 0.205638 0.000000
v 0.338867 0.206069 0.000000
v 0.334843 0.206377 0.000000
v 0.330562 0.206562 0.000000
v 0.336754 0.011660 0.000000
v 0.084422 0.011660 0.000000
v 0.079887 0.011599 0.000000
v 0.075612 0.011414 0.000000
v 0.071595 0.011107 0.000000
v 0.067838 0.010676 0.000000
v 0.064340 0.010122 0.000000
v 0.061101 0.009445 0.000000
v 0.058121 0.008645 0.000000
v 0.055400 0.007722 0.000000
v 0.052938 0.006676 0.000000
v 0.050736 0.005506 0.000000
v 0.048792 0.004214 0.000000
v 0.047108 0.002798 0.000000
v 0.045618 0.001192 0.000000
v 0.044258 -0.000674 -0.000000
v 0.043027 -0.002799 -0.000000
v 0.041926 -0.005182 -0.000000
v 0.040954 -0.007825 -0.000000
v 0.040112 -0.010728 -0.000000
v 0.039399 -0.013889 -0.000000
v 0.038816 -0.017309 -0.000000
v 0.038363 -0.020989 -0.000000
v 0.038039 -0.024927 -0.000000
v 0.037845 -0.029125 -0.000000
v 0.037780 -0.033582 -0.000000
v 0.037780 -0.069496 -0.000000
v 0.037841 -0.073877 -0.000000
v 0.038026 -0.078002 -0.000000
v 0.038334 -0.081871 -0.000000
v 0.038765 -0.085484 -0.000000
v 0.039318 -0.088841 -0.000000
v 0.039995 -0.091943 -0.000000
v 0.040795 -0.094788 -0.000000
v 0.041718 -0.097378 -0.000000
v 0.042765 -0.099711 -0.000000
v 0.043934 -0.101789 -0.000000
v 0.045226 -0.103611 -0.000000
v 0.046642 -0.105177 -0.000000
v 0.048258 -0.106555 -0.000000
v 0.050153 -0.107814 -0.000000
v 0.052326 -0.108952 -0.000000
v 0.054778 -0.109971 -0.000000
v 0.057509 -0.110870 -0.000000
v 0.060518 -0.111649 -0.000000
v 0.063805 -0.112308 -0.000000
v 0.067371 -0.112847 -0.000000
v 0.071216 -0.113267 -0.000000
v 0.075339 -0.113566 -0.000000
v 0.079741 -0.113746 -0.000000
v 0.084422 -0.113806 -0.000000
v 0.336754 -0.113806 -0.000000
v 0.341361 -0.113746 -0.000000
v 0.345700 -0.113566 -0.000000
v 0.349770 -0.113267 -0.000000
v 0.353571 -0.112847 -0.000000
v 0.357103 -0.112308 -0.000000
v 0.360366 -0.111649 -0.000000
v 0.363361 -0.110870 -0.000000
v 0.366086 -0.109971 -0.000000
v 0.368543 -0.108952 -0.000000
v 0.370731 -0.107814 -0.000000
v 0.372650 -0.106555 -0.000000
v 0.374300 -0.105177 -0.000000
v 0.375753 -0.103611 -0.000000
v 0.377079 -0.101789 -0.000000
v 0.378280 -0.099711 -0.000000
v 0.379353 -0.097378 -0.000000
v 0.380301 -0.094788 -0.000000
v 0.381122 -0.091943 -0.000000
v 0.381816 -0.088841 -0.000000
v 0.382385 -0.085484 -0.000000
v 0.382827 -0.081871 -0.000000
v 0.383143 -0.078002 -0.000000
v 0.383332 -0.073877 -0.000000
v 0.383395 -0.069496 -0.000000
v 0.383395 -0.033582 -0.000000
v 0.383331 -0.029125 -0.000000
v 0.383136 -0.024927 -0.000000
v 0.382812 -0.020989 -0.000000
v 0.382359 -0.017309 -0.000000
v 0.381776 -0.013889 -0.000000
v 0.381063 -0.010728 -0.000000
v 0.380221 -0.007825 -0.000000
v 0.379250 -0.005182 -0.000000
v 0.378148 -0.002799 -0.000000
v 0.376917 -0.000674 -0.000000
v 0.375557 0.001192 0.000000
v 0.374067 0.002798 0.000000
v 0.372383 0.004214 0.000000
v 0.370439 0.005506 0.000000
v 0.368237 0.006676 0.000000
v 0.365775 0.007722 0.000000
v 0.363054 0.008645 0.000000
v 0.360075 0.009445 0.000000
v 0.356836 0.010122 0.000000
v 0.353337 0.010676 0.000000
v 0.349580 0.011107 0.000000
v 0.345564 0.011414 0.000000
v 0.341288 0.011599 0.000000
vn 0.0000 -0.0000 1.0000
usemtl Material.001
s off
f 197//1 1//1 198//1
f 197//1 2//1 1//1
f 197//1 3//1 2//1
f 196//1 3//1 197//1
f 196//1 4//1 3//1
f 195//1 4//1 196//1
f 195//1 5//1 4//1
f 194//1 5//1 195//1
f 194//1 6//1 5//1
f 193//1 6//1 194//1
f 193//1 7//1 6//1
f 192//1 7//1 193//1
f 192//1 8//1 7//1
f 191//1 8//1 192//1
f 191//1 9//1 8//1
f 190//1 9//1 191//1
f 190//1 10//1 9//1
f 189//1 10//1 190//1
f 189//1 11//1 10//1
f 188//1 11//1 189//1
f 188//1 12//1 11//1
f 187//1 12//1 188//1
f 187//1 13//1 12//1
f 186//1 13//1 187//1
f 185//1 13//1 186//1
f 185//1 14//1 13//1
f 184//1 14//1 185//1
f 184//1 15//1 14//1
f 183//1 15//1 184//1
f 183//1 16//1 15//1
f 182//1 16//1 183//1
f 182//1 17//1 16//1
f 181//1 17//1 182//1
f 181//1 18//1 17//1
f 181//1 19//1 18//1
f 180//1 19//1 181//1
f 180//1 20//1 19//1
f 179//1 20//1 180//1
f 179//1 21//1 20//1
f 178//1 21//1 179//1
f 178//1 22//1 21//1
f 177//1 22//1 178//1
f 177//1 23//1 22//1
f 176//1 23//1 177//1
f 176//1 199//1 23//1
f 199//1 298//1 23//1
f 298//1 24//1 23//1
f 175//1 201//1 176//1
f 201//1 200//1 176//1
f 200//1 199//1 176//1
f 297//1 24//1 298//1
f 175//1 202//1 201//1
f 296//1 24//1 297//1
f 175//1 203//1 202//1
f 295//1 24//1 296//1
f 175//1 204//1 203//1
f 294//1 24//1 295//1
f 175//1 205//1 204//1
f 293//1 24//1 294//1
f 175//1 206//1 205//1
f 292//1 24//1 293//1
f 175//1 207//1 206//1
f 291//1 24//1 292//1
f 175//1 208//1 207//1
f 291//1 25//1 24//1
f 174//1 208//1 175//1
f 290//1 25//1 291//1
f 174//1 209//1 208//1
f 289//1 25//1 290//1
f 174//1 210//1 209//1
f 288//1 25//1 289//1
f 174//1 211//1 210//1
f 287//1 25//1 288//1
f 174//1 212//1 211//1
f 286//1 25//1 287//1
f 174//1 213//1 212//1
f 285//1 25//1 286//1
f 174//1 214//1 213//1
f 284//1 25//1 285//1
f 173//1 214//1 174//1
f 284//1 26//1 25//1
f 173//1 215//1 214//1
f 283//1 26//1 284//1
f 173//1 216//1 215//1
f 282//1 26//1 283//1
f 173//1 217//1 216//1
f 281//1 26//1 282//1
f 173//1 218//1 217//1
f 280//1 26//1 281//1
f 173//1 219//1 218//1
f 279//1 26//1 280//1
f 173//1 220//1 219//1
f 278//1 26//1 279//1
f 173//1 221//1 220//1
f 277//1 26//1 278//1
f 173//1 222//1 221//1
f 276//1 26//1 277//1
f 173//1 223//1 222//1
f 275//1 26//1 276//1
f 173//1 224//1 223//1
f 173//1 225//1 224//1
f 274//1 26//1 275//1
f 172//1 225//1 173//1
f 274//1 27//1 26//1
f 171//1 225//1 172//1
f 274//1 28//1 27//1
f 171//1 226//1 225//1
f 273//1 28//1 274//1
f 170//1 226//1 171//1
f 273//1 29//1 28//1
f 170//1 227//1 226//1
f 272//1 29//1 273//1
f 169//1 227//1 170//1
f 272//1 30//1 29//1
f 169//1 228//1 227//1
f 271//1 30//1 272//1
f 169//1 229//1 228//1
f 270//1 30//1 271//1
f 168//1 229//1 169//1
f 270//1 31//1 30//1
f 168//1 230//1 229//1
f 269//1 31//1 270//1
f 168//1 231//1 230//1
f 167//1 231//1 168//1
f 268//1 31//1 269//1
f 268//1 32//1 31//1
f 167//1 232//1 231//1
f 267//1 32//1 268//1
f 166//1 232//1 167//1
f 267//1 33//1 32//1
f 166//1 233//1 232//1
f 266//1 33//1 267//1
f 166//1 234//1 233//1
f 265//1 33//1 266//1
f 165//1 234//1 166//1
f 165//1 235//1 234//1
f 265//1 34//1 33//1
f 264//1 34//1 265//1
f 165//1 236//1 235//1
f 263//1 34//1 264//1
f 165//1 237//1 236//1
f 262//1 34//1 263//1
f 164//1 237//1 165//1
f 262//1 35//1 34//1
f 164//1 238//1 237//1
f 261//1 35//1 262//1
f 164//1 239//1 238//1
f 260//1 35//1 261//1
f 164//1 240//1 239//1
f 259//1 35//1 260//1
f 163//1 240//1 164//1
f 163//1 241//1 240//1
f 259//1 36//1 35//1
f 258//1 36//1 259//1
f 163//1 242//1 241//1
f 257//1 36//1 258//1
f 163//1 243//1 242//1
f 256//1 36//1 257//1
f 163//1 244//1 243//1
f 255//1 36//1 256//1
f 163//1 245//1 244//1
f 254//1 36//1 255//1
f 162//1 245//1 163//1
f 162//1 246//1 245//1
f 253//1 36//1 254//1
f 253//1 37//1 36//1
f 162//1 247//1 246//1
f 252//1 37//1 253//1
f 162//1 248//1 247//1
f 251//1 37//1 252//1
f 162//1 249//1 248//1
f 250//1 37//1 251//1
f 162//1 250//1 249//1
f 162//1 37//1 250//1
f 161//1 37//1 162//1
f 161//1 38//1 37//1
f 160//1 38//1 161//1
f 160//1 39//1 38//1
f 159//1 39//1 160//1
f 159//1 40//1 39//1
f 158//1 40//1 159//1
f 158//1 41//1 40//1
f 157//1 41//1 158//1
f 157//1 42//1 41//1
f 156//1 42//1 157//1
f 156//1 43//1 42//1
f 155//1 43//1 156//1
f 155//1 44//1 43//1
f 154//1 44//1 155//1
f 154//1 45//1 44//1
f 153//1 45//1 154//1
f 153//1 46//1 45//1
f 152//1 46//1 153//1
f 152//1 47//1 46//1
f 151//1 47//1 152//1
f 151//1 48//1 47//1
f 150//1 48//1 151//1
f 150//1 49//1 48//1
f 149//1 49//1 150//1
f 149//1 50//1 49//1
f 148//1 50//1 149//1
f 148//1 51//1 50//1
f 148//1 52//1 51//1
f 147//1 52//1 148//1
f 147//1 53//1 52//1
f 146//1 53//1 147//1
f 146//1 54//1 53//1
f 145//1 54//1 146//1
f 145//1 55//1 54//1
f 144//1 55//1 145//1
f 144//1 56//1 55//1
f 143//1 56//1 144//1
f 143//1 57//1 56//1
f 142//1 57//1 143//1
f 142//1 58//1 57//1
f 141//1 58//1 142//1
f 141//1 59//1 58//1
f 140//1 59//1 141//1
f 140//1 60//1 59//1
f 139//1 60//1 140//1
f 139//1 61//1 60//1
f 138//1 61//1 139//1
f 138//1 62//1 61//1
f 137//1 62//1 138//1
f 137//1 63//1 62//1
f 136//1 63//1 137//1
f 136//1 64//1 63//1
f 135//1 64//1 136//1
f 135//1 65//1 64//1
f 134//1 300//1 135//1
f 300//1 299//1 135//1
f 299//1 65//1 135//1
f 134//1 301//1 300//1
f 398//1 65//1 299//1
f 397//1 65//1 398//1
f 134//1 302//1 301//1
f 396//1 65//1 397//1
f 134//1 303//1 302//1
f 395//1 65//1 396//1
f 134//1 304//1 303//1
f 394//1 65//1 395//1
f 134//1 305//1 304//1
f 394//1 66//1 65//1
f 133//1 305//1 134//1
f 393//1 66//1 394//1
f 133//1 306//1 305//1
f 392//1 66//1 393//1
f 133//1 307//1 306//1
f 391//1 66//1 392//1
f 133//1 308//1 307//1
f 390//1 66//1 391//1
f 133//1 309//1 308//1
f 389//1 66//1 390//1
f 133//1 310//1 309//1
f 389//1 67//1 66//1
f 388//1 67//1 389//1
f 133//1 311//1 310//1
f 132//1 311//1 133//1
f 387//1 67//1 388//1
f 132//1 312//1 311//1
f 132//1 313//1 312//1
f 386//1 67//1 387//1
f 132//1 314//1 313//1
f 385//1 67//1 386//1
f 385//1 68//1 67//1
f 131//1 314//1 132//1
f 131//1 315//1 314//1
f 384//1 68//1 385//1
f 131//1 316//1 315//1
f 383//1 68//1 384//1
f 382//1 68//1 383//1
f 131//1 317//1 316//1
f 382//1 69//1 68//1
f 130//1 317//1 131//1
f 381//1 69//1 382//1
f 130//1 318//1 317//1
f 380//1 69//1 381//1
f 130//1 319//1 318//1
f 380//1 70//1 69//1
f 129//1 319//1 130//1
f 379//1 70//1 380//1
f 129//1 320//1 319//1
f 379//1 71//1 70//1
f 378//1 71//1 379//1
f 129//1 321//1 320//1
f 128//1 321//1 129//1
f 377//1 71//1 378//1
f 128//1 322//1 321//1
f 377//1 72//1 71//1
f 127//1 322//1 128//1
f 376//1 72//1 377//1
f 127//1 323//1 322//1
f 375//1 72//1 376//1
f 127//1 324//1 323//1
f 375//1 73//1 72//1
f 126//1 324//1 127//1
f 126//1 325//1 324//1
f 374//1 73//1 375//1
f 374//1 74//1 73//1
f 125//1 325//1 126//1
f 124//1 325//1 125//1
f 374//1 75//1 74//1
f 124//1 326//1 325//1
f 373//1 75//1 374//1
f 124//1 327//1 326//1
f 372//1 75//1 373//1
f 124//1 328//1 327//1
f 371//1 75//1 372//1
f 124//1 329//1 328//1
f 370//1 75//1 371//1
f 124//1 330//1 329//1
f 369//1 75//1 370//1
f 124//1 331//1 330//1
f 368//1 75//1 369//1
f 124//1 332//1 331//1
f 367//1 75//1 368//1
f 124//1 333//1 332//1
f 366//1 75//1 367//1
f 123//1 333//1 124//1
f 366//1 76//1 75//1
f 123//1 334//1 333//1
f 365//1 76//1 366//1
f 123//1 335//1 334//1
f 364//1 76//1 365//1
f 123//1 336//1 335//1
f 363//1 76//1 364//1
f 123//1 337//1 336//1
f 362//1 76//1 363//1
f 123//1 338//1 337//1
f 361//1 76//1 362//1
f 361//1 77//1 76//1
f 122//1 338//1 123//1
f 360//1 77//1 361//1
f 122//1 339//1 338//1
f 359//1 77//1 360//1
f 122//1 340//1 339//1
f 358//1 77//1 359//1
f 122//1 341//1 340//1
f 357//1 77//1 358//1
f 122//1 342//1 341//1
f 356//1 77//1 357//1
f 122//1 343//1 342//1
f 355//1 77//1 356//1
f 122//1 344//1 343//1
f 354//1 77//1 355//1
f 122//1 345//1 344//1
f 353//1 77//1 354//1
f 122//1 346//1 345//1
f 352//1 77//1 353//1
f 122//1 347//1 346//1
f 351//1 77//1 352//1
f 122//1 348//1 347//1
f 350//1 77//1 351//1
f 122//1 349//1 348//1
f 122//1 350//1 349//1
f 122//1 77//1 350//1
f 122//1 78//1 77//1
f 121//1 78//1 122//1
f 121//1 79//1 78//1
f 120//1 79//1 121//1
f 120//1 80//1 79//1
f 119//1 80//1 120//1
f 119//1 81//1 80//1
f 118//1 81//1 119//1
f 118//1 82//1 81//1
f 117//1 82//1 118//1
f 117//1 83//1 82//1
f 116//1 83//1 117//1
f 116//1 84//1 83//1
f 115//1 84//1 116//1
f 115//1 85//1 84//1
f 114//1 85//1 115//1
f 114//1 86//1 85//1
f 113//1 86//1 114//1
f 113//1 87//1 86//1
f 112//1 87//1 113//1
f 112//1 88//1 87//1
f 111//1 88//1 112//1
f 111//1 89//1 88//1
f 110//1 89//1 111//1
f 110//1 90//1 89//1
f 109//1 90//1 110//1
f 109//1 91//1 90//1
f 108//1 91//1 109//1
f 108//1 92//1 91//1
f 107//1 92//1 108//1
f 107//1 93//1 92//1
f 106//1 93//1 107//1
f 106//1 94//1 93//1
f 105//1 94//1 106//1
f 105//1 95//1 94//1
f 104//1 95//1 105//1
f 104//1 96//1 95//1
f 103//1 96//1 104//1
f 103//1 97//1 96//1
f 102//1 97//1 103//1
f 102//1 98//1 97//1
f 101//1 98//1 102//1
f 101//1 99//1 98//1
f 100//1 99//1 101//1
