# Blender v2.77 (sub 0) OBJ File: ''
# www.blender.org
mtllib laser.mtl
o Circle
v -0.028227 0.141906 -2.360371
v 0.080383 0.120302 -2.360371
v 0.141906 0.028227 -2.360371
v 0.120302 -0.080383 -2.360371
v 0.028227 -0.141906 -2.360371
v -0.080383 -0.120302 -2.360371
v -0.141906 -0.028227 -2.360371
v -0.120302 0.080383 -2.360371
v -0.028227 0.141906 2.360372
v -0.120302 0.080383 2.360372
v -0.141906 -0.028227 2.360372
v -0.080383 -0.120302 2.360372
v 0.028227 -0.141906 2.360372
v 0.120302 -0.080383 2.360372
v 0.141906 0.028227 2.360372
v 0.080383 0.120302 2.360372
vt 0.8075 0.0046
vt 0.9075 0.0015
vt 0.9851 0.0211
vt 0.9950 0.0518
vt 0.9313 0.0756
vt 0.8313 0.0786
vt 0.7537 0.0590
vt 0.7438 0.0284
vt 0.7438 0.1085
vt 0.8075 0.0847
vt 0.9075 0.0817
vt 0.9851 0.1012
vt 0.9950 0.1319
vt 0.9313 0.1557
vt 0.8313 0.1587
vt 0.7537 0.1392
vt 0.1143 0.0000
vt 0.1143 1.0000
vt 0.0182 1.0000
vt 0.0182 0.0000
vt 0.7388 0.0000
vt 0.7388 1.0000
vt 0.6427 1.0000
vt 0.6427 0.0000
vt 0.3876 0.0000
vt 0.3876 1.0000
vt 0.2915 1.0000
vt 0.2915 0.0000
vt 0.5541 0.0000
vt 0.5541 1.0000
vt 0.4580 1.0000
vt 0.4580 0.0000
vt 0.2029 0.0000
vt 0.2029 1.0000
vt 0.2029 1.0000
vt 0.2029 0.0000
vn -0.0000 0.0000 -1.0000
vn -0.0000 0.0000 1.0000
vn 0.1951 0.9808 0.0000
vn -0.1951 -0.9808 -0.0000
vn 0.9808 -0.1951 -0.0000
vn -0.8315 -0.5556 -0.0000
vn -0.5556 0.8315 0.0000
vn 0.8315 0.5556 0.0000
vn 0.5556 -0.8315 -0.0000
vn -0.9808 0.1951 0.0000
usemtl Material.001
s 1
f 1/1/1 2/2/1 3/3/1 4/4/1 5/5/1 6/6/1 7/7/1 8/8/1
f 9/9/2 10/10/2 11/11/2 12/12/2 13/13/2 14/14/2 15/15/2 16/16/2
f 16/17/3 2/18/3 1/19/3 9/20/3
f 5/21/4 13/22/4 12/23/4 6/24/4
f 3/25/5 15/26/5 14/27/5 4/28/5
f 7/29/6 6/24/6 12/23/6 11/30/6
f 10/31/7 9/20/7 1/19/7 8/32/7
f 16/17/8 15/33/8 3/34/8 2/18/8
f 14/27/9 13/35/9 5/36/9 4/28/9
f 7/29/10 11/30/10 10/31/10 8/32/10
