# Blender v2.77 (sub 0) OBJ File: ''
# www.blender.org
mtllib pause.mtl
o Text_Mesh.001
v 1.302411 -0.244886 -0.000000
v 1.302411 0.248118 0.000000
v 1.807075 0.248118 0.000000
v 1.807075 0.164163 0.000000
v 1.417150 0.164163 0.000000
v 1.417150 0.054088 0.000000
v 1.644762 0.054088 0.000000
v 1.644762 -0.029867 -0.000000
v 1.417150 -0.029867 -0.000000
v 1.417150 -0.152069 -0.000000
v 1.811739 -0.152069 -0.000000
v 1.811739 -0.244886 -0.000000
v 0.956795 0.161830 0.000000
v 0.634034 0.161830 0.000000
v 0.634034 0.055954 0.000000
v 0.941404 0.055954 0.000000
v 0.953127 0.055782 0.000000
v 0.964200 0.055267 0.000000
v 0.974621 0.054409 0.000000
v 0.984392 0.053207 0.000000
v 0.993511 0.051662 0.000000
v 1.001979 0.049774 0.000000
v 1.009797 0.047542 0.000000
v 1.016963 0.044967 0.000000
v 1.023478 0.042048 0.000000
v 1.029343 0.038787 0.000000
v 1.034556 0.035182 0.000000
v 1.039118 0.031233 0.000000
v 1.043178 0.026819 0.000000
v 1.046885 0.021814 0.000000
v 1.050239 0.016221 0.000000
v 1.053240 0.010037 0.000000
v 1.055888 0.003265 0.000000
v 1.058183 -0.004098 -0.000000
v 1.060125 -0.012050 -0.000000
v 1.061714 -0.020591 -0.000000
v 1.062949 -0.029722 -0.000000
v 1.063832 -0.039442 -0.000000
v 1.064361 -0.049752 -0.000000
v 1.064538 -0.060651 -0.000000
v 1.064538 -0.128282 -0.000000
v 1.064361 -0.139181 -0.000000
v 1.063832 -0.149491 -0.000000
v 1.062949 -0.159211 -0.000000
v 1.061714 -0.168342 -0.000000
v 1.060125 -0.176883 -0.000000
v 1.058183 -0.184835 -0.000000
v 1.055888 -0.192197 -0.000000
v 1.053240 -0.198970 -0.000000
v 1.050239 -0.205153 -0.000000
v 1.046885 -0.210747 -0.000000
v 1.043178 -0.215751 -0.000000
v 1.039118 -0.220166 -0.000000
v 1.034556 -0.224114 -0.000000
v 1.029343 -0.227719 -0.000000
v 1.023479 -0.230981 -0.000000
v 1.016963 -0.233899 -0.000000
v 1.009797 -0.236474 -0.000000
v 1.001980 -0.238706 -0.000000
v 0.993511 -0.240594 -0.000000
v 0.984392 -0.242139 -0.000000
v 0.974621 -0.243341 -0.000000
v 0.964200 -0.244199 -0.000000
v 0.953127 -0.244714 -0.000000
v 0.941404 -0.244886 -0.000000
v 0.636833 -0.244886 -0.000000
v 0.625109 -0.244714 -0.000000
v 0.614036 -0.244199 -0.000000
v 0.603615 -0.243341 -0.000000
v 0.593845 -0.242139 -0.000000
v 0.584725 -0.240594 -0.000000
v 0.576257 -0.238706 -0.000000
v 0.568439 -0.236474 -0.000000
v 0.561273 -0.233899 -0.000000
v 0.554758 -0.230981 -0.000000
v 0.548894 -0.227719 -0.000000
v 0.543680 -0.224114 -0.000000
v 0.539118 -0.220166 -0.000000
v 0.535058 -0.215751 -0.000000
v 0.531351 -0.210747 -0.000000
v 0.527997 -0.205153 -0.000000
v 0.524996 -0.198970 -0.000000
v 0.522348 -0.192197 -0.000000
v 0.520053 -0.184835 -0.000000
v 0.518111 -0.176883 -0.000000
v 0.516523 -0.168342 -0.000000
v 0.515287 -0.159211 -0.000000
v 0.514404 -0.149491 -0.000000
v 0.513875 -0.139181 -0.000000
v 0.513698 -0.128282 -0.000000
v 0.513698 -0.114755 -0.000000
v 0.614911 -0.093767 -0.000000
v 0.614911 -0.152069 -0.000000
v 0.963325 -0.152069 -0.000000
v 0.963325 -0.039662 -0.000000
v 0.655956 -0.039662 -0.000000
v 0.644308 -0.039490 -0.000000
v 0.633309 -0.038975 -0.000000
v 0.622957 -0.038117 -0.000000
v 0.613253 -0.036915 -0.000000
v 0.604196 -0.035370 -0.000000
v 0.595788 -0.033482 -0.000000
v 0.588027 -0.031250 -0.000000
v 0.580914 -0.028675 -0.000000
v 0.574449 -0.025757 -0.000000
v 0.568632 -0.022495 -0.000000
v 0.563462 -0.018890 -0.000000
v 0.558941 -0.014942 -0.000000
v 0.554918 -0.010527 -0.000000
v 0.551245 -0.005523 -0.000000
v 0.547922 0.000071 0.000000
v 0.544948 0.006254 0.000000
v 0.542325 0.013027 0.000000
v 0.540051 0.020389 0.000000
v 0.538127 0.028341 0.000000
v 0.536553 0.036882 0.000000
v 0.535328 0.046013 0.000000
v 0.534454 0.055733 0.000000
v 0.533929 0.066043 0.000000
v 0.533754 0.076942 0.000000
v 0.533754 0.131513 0.000000
v 0.533929 0.142413 0.000000
v 0.534454 0.152722 0.000000
v 0.535329 0.162443 0.000000
v 0.536553 0.171573 0.000000
v 0.538127 0.180115 0.000000
v 0.540051 0.188066 0.000000
v 0.542325 0.195429 0.000000
v 0.544948 0.202201 0.000000
v 0.547922 0.208385 0.000000
v 0.551245 0.213979 0.000000
v 0.554918 0.218983 0.000000
v 0.558941 0.223398 0.000000
v 0.563462 0.227346 0.000000
v 0.568632 0.230951 0.000000
v 0.574449 0.234213 0.000000
v 0.580914 0.237131 0.000000
v 0.588027 0.239706 0.000000
v 0.595788 0.241938 0.000000
v 0.604196 0.243826 0.000000
v 0.613253 0.245371 0.000000
v 0.622957 0.246573 0.000000
v 0.633309 0.247431 0.000000
v 0.644308 0.247946 0.000000
v 0.655956 0.248118 0.000000
v 0.935807 0.248118 0.000000
v 0.947090 0.247953 0.000000
v 0.957774 0.247457 0.000000
v 0.967858 0.246631 0.000000
v 0.977344 0.245475 0.000000
v 0.986230 0.243988 0.000000
v 0.994517 0.242171 0.000000
v 1.002205 0.240023 0.000000
v 1.009293 0.237546 0.000000
v 1.015783 0.234737 0.000000
v 1.021673 0.231599 0.000000
v 1.026964 0.228130 0.000000
v 1.031655 0.224330 0.000000
v 1.035864 0.220110 0.000000
v 1.039708 0.215378 0.000000
v 1.043185 0.210134 0.000000
v 1.046296 0.204378 0.000000
v 1.049041 0.198111 0.000000
v 1.051420 0.191331 0.000000
v 1.053433 0.184040 0.000000
v 1.055080 0.176238 0.000000
v 1.056361 0.167923 0.000000
v 1.057276 0.159097 0.000000
v 1.057825 0.149759 0.000000
v 1.058008 0.139909 0.000000
v 1.058008 0.129648 0.000000
v 0.956795 0.105860 0.000000
v -0.164007 0.248118 0.000000
v -0.164007 -0.152069 -0.000000
v 0.162952 -0.152069 -0.000000
v 0.162952 0.248118 0.000000
v 0.277224 0.248118 0.000000
v 0.277224 -0.128282 -0.000000
v 0.277049 -0.139254 -0.000000
v 0.276525 -0.149627 -0.000000
v 0.275650 -0.159400 -0.000000
v 0.274426 -0.168575 -0.000000
v 0.272852 -0.177150 -0.000000
v 0.270928 -0.185126 -0.000000
v 0.268654 -0.192503 -0.000000
v 0.266030 -0.199281 -0.000000
v 0.263057 -0.205459 -0.000000
v 0.259734 -0.211038 -0.000000
v 0.256060 -0.216018 -0.000000
v 0.252038 -0.220399 -0.000000
v 0.247516 -0.224310 -0.000000
v 0.242347 -0.227881 -0.000000
v 0.236530 -0.231112 -0.000000
v 0.230065 -0.234003 -0.000000
v 0.222952 -0.236554 -0.000000
v 0.215191 -0.238764 -0.000000
v 0.206782 -0.240635 -0.000000
v 0.197726 -0.242165 -0.000000
v 0.188022 -0.243356 -0.000000
v 0.177670 -0.244206 -0.000000
v 0.166670 -0.244716 -0.000000
v 0.155023 -0.244886 -0.000000
v -0.156544 -0.244886 -0.000000
v -0.168119 -0.244716 -0.000000
v -0.179055 -0.244206 -0.000000
v -0.189354 -0.243356 -0.000000
v -0.199014 -0.242165 -0.000000
v -0.208036 -0.240635 -0.000000
v -0.216421 -0.238764 -0.000000
v -0.224167 -0.236554 -0.000000
v -0.231275 -0.234003 -0.000000
v -0.237745 -0.231112 -0.000000
v -0.243577 -0.227881 -0.000000
v -0.248770 -0.224310 -0.000000
v -0.253326 -0.220399 -0.000000
v -0.257386 -0.216018 -0.000000
v -0.261093 -0.211038 -0.000000
v -0.264447 -0.205459 -0.000000
v -0.267448 -0.199281 -0.000000
v -0.270096 -0.192503 -0.000000
v -0.272391 -0.185126 -0.000000
v -0.274333 -0.177150 -0.000000
v -0.275921 -0.168575 -0.000000
v -0.277157 -0.159400 -0.000000
v -0.278040 -0.149627 -0.000000
v -0.278569 -0.139254 -0.000000
v -0.278746 -0.128282 -0.000000
v -0.278746 0.248118 0.000000
v -0.888820 -0.048058 -0.000000
v -0.672869 -0.048058 -0.000000
v -0.779212 0.152502 0.000000
v -1.109436 -0.244886 -0.000000
v -0.830518 0.248118 0.000000
v -0.719977 0.248118 0.000000
v -0.437328 -0.244886 -0.000000
v -0.566059 -0.244886 -0.000000
v -0.625294 -0.137143 -0.000000
v -0.937794 -0.137143 -0.000000
v -0.995164 -0.244886 -0.000000
v -1.354305 0.162763 0.000000
v -1.612234 0.162763 0.000000
v -1.612234 0.032166 0.000000
v -1.354305 0.032166 0.000000
v -1.349461 0.032226 0.000000
v -1.344880 0.032406 0.000000
v -1.340561 0.032706 0.000000
v -1.336504 0.033125 0.000000
v -1.332709 0.033664 0.000000
v -1.329177 0.034323 0.000000
v -1.325907 0.035102 0.000000
v -1.322900 0.036001 0.000000
v -1.320155 0.037020 0.000000
v -1.317672 0.038158 0.000000
v -1.315452 0.039417 0.000000
v -1.313494 0.040795 0.000000
v -1.311743 0.042325 0.000000
v -1.310145 0.044040 0.000000
v -1.308698 0.045940 0.000000
v -1.307405 0.048024 0.000000
v -1.306263 0.050293 0.000000
v -1.305273 0.052747 0.000000
v -1.304436 0.055385 0.000000
v -1.303751 0.058208 0.000000
v -1.303218 0.061215 0.000000
v -1.302838 0.064407 0.000000
v -1.302609 0.067784 0.000000
v -1.302533 0.071345 0.000000
v -1.302533 0.124051 0.000000
v -1.302609 0.127537 0.000000
v -1.302837 0.130846 0.000000
v -1.303218 0.133977 0.000000
v -1.303751 0.136929 0.000000
v -1.304436 0.139703 0.000000
v -1.305273 0.142299 0.000000
v -1.306263 0.144717 0.000000
v -1.307404 0.146957 0.000000
v -1.308698 0.149019 0.000000
v -1.310145 0.150902 0.000000
v -1.311743 0.152607 0.000000
v -1.313494 0.154135 0.000000
v -1.315452 0.155513 0.000000
v -1.317672 0.156771 0.000000
v -1.320155 0.157910 0.000000
v -1.322900 0.158928 0.000000
v -1.325907 0.159827 0.000000
v -1.329177 0.160606 0.000000
v -1.332709 0.161265 0.000000
v -1.336504 0.161805 0.000000
v -1.340561 0.162224 0.000000
v -1.344880 0.162524 0.000000
v -1.349461 0.162703 0.000000
v -1.725108 -0.244886 -0.000000
v -1.725108 0.248118 0.000000
v -1.303466 0.248118 0.000000
v -1.293896 0.247961 0.000000
v -1.284777 0.247489 0.000000
v -1.276108 0.246704 0.000000
v -1.267889 0.245604 0.000000
v -1.260120 0.244190 0.000000
v -1.252801 0.242462 0.000000
v -1.245933 0.240420 0.000000
v -1.239515 0.238064 0.000000
v -1.233547 0.235393 0.000000
v -1.228029 0.232409 0.000000
v -1.222962 0.229110 0.000000
v -1.218345 0.225496 0.000000
v -1.214136 0.221534 0.000000
v -1.210292 0.217185 0.000000
v -1.206815 0.212451 0.000000
v -1.203704 0.207332 0.000000
v -1.200959 0.201827 0.000000
v -1.198580 0.195937 0.000000
v -1.196567 0.189662 0.000000
v -1.194920 0.183001 0.000000
v -1.193639 0.175954 0.000000
v -1.192724 0.168522 0.000000
v -1.192175 0.160705 0.000000
v -1.191992 0.152502 0.000000
v -1.191992 0.042427 0.000000
v -1.192175 0.034299 0.000000
v -1.192724 0.026550 0.000000
v -1.193639 0.019179 0.000000
v -1.194920 0.012188 0.000000
v -1.196567 0.005576 0.000000
v -1.198580 -0.000658 -0.000000
v -1.200959 -0.006512 -0.000000
v -1.203704 -0.011988 -0.000000
v -1.206815 -0.017085 -0.000000
v -1.210292 -0.021802 -0.000000
v -1.214136 -0.026141 -0.000000
v -1.218345 -0.030101 -0.000000
v -1.222962 -0.033714 -0.000000
v -1.228029 -0.037013 -0.000000
v -1.233547 -0.039997 -0.000000
v -1.239515 -0.042668 -0.000000
v -1.245933 -0.045024 -0.000000
v -1.252801 -0.047067 -0.000000
v -1.260120 -0.048795 -0.000000
v -1.267889 -0.050208 -0.000000
v -1.276108 -0.051308 -0.000000
v -1.284777 -0.052093 -0.000000
v -1.293896 -0.052565 -0.000000
v -1.303466 -0.052722 -0.000000
v -1.612234 -0.052722 -0.000000
v -1.612234 -0.244886 -0.000000
vn 0.0000 -0.0000 1.0000
usemtl Material.001
s off
f 1//1 5//1 2//1
f 5//1 3//1 2//1
f 5//1 4//1 3//1
f 1//1 6//1 5//1
f 1//1 9//1 6//1
f 9//1 7//1 6//1
f 9//1 8//1 7//1
f 1//1 10//1 9//1
f 1//1 11//1 10//1
f 1//1 12//1 11//1
f 144//1 146//1 145//1
f 144//1 147//1 146//1
f 144//1 148//1 147//1
f 143//1 148//1 144//1
f 143//1 149//1 148//1
f 142//1 149//1 143//1
f 142//1 150//1 149//1
f 141//1 150//1 142//1
f 141//1 151//1 150//1
f 140//1 151//1 141//1
f 140//1 152//1 151//1
f 139//1 152//1 140//1
f 139//1 153//1 152//1
f 138//1 153//1 139//1
f 138//1 154//1 153//1
f 137//1 154//1 138//1
f 137//1 155//1 154//1
f 136//1 155//1 137//1
f 136//1 156//1 155//1
f 135//1 156//1 136//1
f 135//1 157//1 156//1
f 134//1 157//1 135//1
f 134//1 158//1 157//1
f 133//1 158//1 134//1
f 133//1 159//1 158//1
f 132//1 159//1 133//1
f 132//1 160//1 159//1
f 131//1 160//1 132//1
f 131//1 161//1 160//1
f 130//1 161//1 131//1
f 130//1 162//1 161//1
f 129//1 162//1 130//1
f 129//1 163//1 162//1
f 128//1 163//1 129//1
f 128//1 164//1 163//1
f 127//1 164//1 128//1
f 127//1 165//1 164//1
f 126//1 165//1 127//1
f 126//1 166//1 165//1
f 125//1 166//1 126//1
f 125//1 167//1 166//1
f 124//1 167//1 125//1
f 124//1 13//1 167//1
f 13//1 168//1 167//1
f 123//1 14//1 124//1
f 14//1 13//1 124//1
f 123//1 15//1 14//1
f 172//1 168//1 13//1
f 172//1 169//1 168//1
f 122//1 15//1 123//1
f 172//1 170//1 169//1
f 121//1 15//1 122//1
f 172//1 171//1 170//1
f 120//1 15//1 121//1
f 119//1 15//1 120//1
f 118//1 15//1 119//1
f 118//1 16//1 15//1
f 118//1 17//1 16//1
f 118//1 18//1 17//1
f 117//1 18//1 118//1
f 117//1 19//1 18//1
f 117//1 20//1 19//1
f 117//1 21//1 20//1
f 117//1 22//1 21//1
f 117//1 23//1 22//1
f 117//1 24//1 23//1
f 116//1 24//1 117//1
f 116//1 25//1 24//1
f 116//1 26//1 25//1
f 116//1 27//1 26//1
f 115//1 27//1 116//1
f 115//1 28//1 27//1
f 115//1 29//1 28//1
f 114//1 29//1 115//1
f 114//1 30//1 29//1
f 114//1 31//1 30//1
f 113//1 31//1 114//1
f 113//1 32//1 31//1
f 112//1 32//1 113//1
f 112//1 33//1 32//1
f 111//1 33//1 112//1
f 111//1 34//1 33//1
f 110//1 34//1 111//1
f 110//1 35//1 34//1
f 109//1 35//1 110//1
f 108//1 35//1 109//1
f 108//1 36//1 35//1
f 107//1 36//1 108//1
f 106//1 36//1 107//1
f 106//1 37//1 36//1
f 105//1 37//1 106//1
f 104//1 37//1 105//1
f 103//1 37//1 104//1
f 103//1 38//1 37//1
f 102//1 38//1 103//1
f 101//1 38//1 102//1
f 100//1 38//1 101//1
f 99//1 38//1 100//1
f 98//1 38//1 99//1
f 97//1 38//1 98//1
f 97//1 95//1 38//1
f 95//1 39//1 38//1
f 96//1 95//1 97//1
f 94//1 39//1 95//1
f 94//1 40//1 39//1
f 94//1 41//1 40//1
f 91//1 93//1 92//1
f 90//1 93//1 91//1
f 89//1 93//1 90//1
f 94//1 42//1 41//1
f 88//1 93//1 89//1
f 94//1 43//1 42//1
f 87//1 93//1 88//1
f 94//1 44//1 43//1
f 87//1 94//1 93//1
f 87//1 44//1 94//1
f 86//1 44//1 87//1
f 86//1 45//1 44//1
f 85//1 45//1 86//1
f 85//1 46//1 45//1
f 84//1 46//1 85//1
f 84//1 47//1 46//1
f 83//1 47//1 84//1
f 83//1 48//1 47//1
f 82//1 48//1 83//1
f 82//1 49//1 48//1
f 81//1 49//1 82//1
f 81//1 50//1 49//1
f 80//1 50//1 81//1
f 80//1 51//1 50//1
f 79//1 51//1 80//1
f 79//1 52//1 51//1
f 78//1 52//1 79//1
f 78//1 53//1 52//1
f 77//1 53//1 78//1
f 77//1 54//1 53//1
f 76//1 54//1 77//1
f 76//1 55//1 54//1
f 75//1 55//1 76//1
f 75//1 56//1 55//1
f 74//1 56//1 75//1
f 74//1 57//1 56//1
f 73//1 57//1 74//1
f 73//1 58//1 57//1
f 72//1 58//1 73//1
f 72//1 59//1 58//1
f 72//1 60//1 59//1
f 71//1 60//1 72//1
f 71//1 61//1 60//1
f 70//1 61//1 71//1
f 70//1 62//1 61//1
f 69//1 62//1 70//1
f 69//1 63//1 62//1
f 68//1 63//1 69//1
f 68//1 64//1 63//1
f 67//1 64//1 68//1
f 67//1 65//1 64//1
f 66//1 65//1 67//1
f 227//1 173//1 228//1
f 227//1 174//1 173//1
f 175//1 177//1 176//1
f 175//1 178//1 177//1
f 226//1 174//1 227//1
f 175//1 179//1 178//1
f 225//1 174//1 226//1
f 175//1 180//1 179//1
f 224//1 174//1 225//1
f 175//1 181//1 180//1
f 224//1 175//1 174//1
f 224//1 181//1 175//1
f 223//1 181//1 224//1
f 223//1 182//1 181//1
f 222//1 182//1 223//1
f 222//1 183//1 182//1
f 221//1 183//1 222//1
f 221//1 184//1 183//1
f 221//1 185//1 184//1
f 220//1 185//1 221//1
f 220//1 186//1 185//1
f 219//1 186//1 220//1
f 219//1 187//1 186//1
f 218//1 187//1 219//1
f 218//1 188//1 187//1
f 217//1 188//1 218//1
f 217//1 189//1 188//1
f 216//1 189//1 217//1
f 216//1 190//1 189//1
f 215//1 190//1 216//1
f 214//1 190//1 215//1
f 214//1 191//1 190//1
f 213//1 191//1 214//1
f 213//1 192//1 191//1
f 212//1 192//1 213//1
f 212//1 193//1 192//1
f 211//1 193//1 212//1
f 211//1 194//1 193//1
f 210//1 194//1 211//1
f 210//1 195//1 194//1
f 209//1 195//1 210//1
f 209//1 196//1 195//1
f 208//1 196//1 209//1
f 208//1 197//1 196//1
f 207//1 197//1 208//1
f 207//1 198//1 197//1
f 206//1 198//1 207//1
f 206//1 199//1 198//1
f 205//1 199//1 206//1
f 205//1 200//1 199//1
f 204//1 200//1 205//1
f 204//1 201//1 200//1
f 203//1 201//1 204//1
f 203//1 202//1 201//1
f 232//1 234//1 233//1
f 232//1 231//1 234//1
f 231//1 235//1 234//1
f 232//1 229//1 231//1
f 230//1 235//1 231//1
f 232//1 238//1 229//1
f 238//1 230//1 229//1
f 238//1 237//1 230//1
f 237//1 235//1 230//1
f 232//1 239//1 238//1
f 236//1 235//1 237//1
f 292//1 241//1 293//1
f 241//1 294//1 293//1
f 241//1 295//1 294//1
f 241//1 296//1 295//1
f 241//1 297//1 296//1
f 241//1 298//1 297//1
f 241//1 299//1 298//1
f 241//1 300//1 299//1
f 241//1 301//1 300//1
f 241//1 302//1 301//1
f 241//1 303//1 302//1
f 241//1 304//1 303//1
f 241//1 305//1 304//1
f 241//1 306//1 305//1
f 241//1 307//1 306//1
f 241//1 308//1 307//1
f 241//1 309//1 308//1
f 241//1 310//1 309//1
f 241//1 311//1 310//1
f 241//1 312//1 311//1
f 241//1 313//1 312//1
f 241//1 314//1 313//1
f 241//1 315//1 314//1
f 241//1 316//1 315//1
f 241//1 240//1 316//1
f 240//1 291//1 316//1
f 291//1 317//1 316//1
f 292//1 242//1 241//1
f 290//1 317//1 291//1
f 289//1 317//1 290//1
f 288//1 317//1 289//1
f 287//1 317//1 288//1
f 286//1 317//1 287//1
f 286//1 318//1 317//1
f 285//1 318//1 286//1
f 284//1 318//1 285//1
f 283//1 318//1 284//1
f 282//1 318//1 283//1
f 281//1 318//1 282//1
f 280//1 318//1 281//1
f 279//1 318//1 280//1
f 278//1 318//1 279//1
f 278//1 319//1 318//1
f 277//1 319//1 278//1
f 276//1 319//1 277//1
f 275//1 319//1 276//1
f 274//1 319//1 275//1
f 273//1 319//1 274//1
f 272//1 319//1 273//1
f 271//1 319//1 272//1
f 270//1 319//1 271//1
f 269//1 319//1 270//1
f 268//1 319//1 269//1
f 267//1 319//1 268//1
f 266//1 319//1 267//1
f 265//1 319//1 266//1
f 264//1 319//1 265//1
f 263//1 319//1 264//1
f 262//1 319//1 263//1
f 261//1 319//1 262//1
f 260//1 319//1 261//1
f 259//1 319//1 260//1
f 258//1 319//1 259//1
f 257//1 319//1 258//1
f 256//1 319//1 257//1
f 256//1 320//1 319//1
f 255//1 320//1 256//1
f 254//1 320//1 255//1
f 253//1 320//1 254//1
f 252//1 320//1 253//1
f 251//1 320//1 252//1
f 250//1 320//1 251//1
f 249//1 320//1 250//1
f 248//1 320//1 249//1
f 248//1 321//1 320//1
f 247//1 321//1 248//1
f 246//1 321//1 247//1
f 245//1 321//1 246//1
f 244//1 321//1 245//1
f 243//1 321//1 244//1
f 292//1 344//1 242//1
f 344//1 243//1 242//1
f 344//1 321//1 243//1
f 344//1 322//1 321//1
f 344//1 323//1 322//1
f 344//1 324//1 323//1
f 344//1 325//1 324//1
f 344//1 326//1 325//1
f 344//1 327//1 326//1
f 344//1 328//1 327//1
f 344//1 329//1 328//1
f 344//1 330//1 329//1
f 344//1 331//1 330//1
f 344//1 332//1 331//1
f 344//1 333//1 332//1
f 344//1 334//1 333//1
f 344//1 335//1 334//1
f 344//1 336//1 335//1
f 344//1 337//1 336//1
f 344//1 338//1 337//1
f 344//1 339//1 338//1
f 344//1 340//1 339//1
f 344//1 341//1 340//1
f 344//1 342//1 341//1
f 344//1 343//1 342//1
f 292//1 345//1 344//1
